<svg xmlns="http://www.w3.org/2000/svg" width="640" height="640" viewBox="0 0 640 640" version="1.1"><path d="M 322.364 270.493 C 322.018 271.396, 322.214 272.614, 322.800 273.200 C 324.324 274.724, 327.210 273.331, 326.812 271.265 C 326.369 268.963, 323.165 268.407, 322.364 270.493 M 402.200 573.200 C 400.517 574.883, 400.706 578.564, 402.571 580.429 C 404.603 582.460, 425.718 582.725, 428.169 580.750 C 430.563 578.821, 430.994 576.437, 429.368 574.115 C 427.997 572.158, 426.975 572, 415.643 572 C 407.454 572, 403.003 572.397, 402.200 573.200 M 441.237 573.163 C 439.521 574.879, 439.691 578.548, 441.571 580.429 C 442.691 581.548, 445.092 582, 449.916 582 C 455.454 582, 457.025 581.629, 458.527 579.970 C 459.982 578.363, 460.166 577.373, 459.411 575.220 C 458.494 572.603, 458.155 572.489, 450.465 572.213 C 445.107 572.021, 442.066 572.334, 441.237 573.163 M 470.035 573.934 C 467.195 579.241, 470.350 582, 479.257 582 C 486.453 582, 489 580.596, 489 576.629 C 489 572.866, 487.098 572, 478.835 572 C 472.182 572, 470.922 572.277, 470.035 573.934 M 499.557 574.223 C 497.553 577.083, 497.592 577.592, 500 580 C 501.560 581.560, 503.333 582, 508.066 582 C 515.572 582, 518 580.818, 518 577.165 C 518 572.895, 516.329 572, 508.357 572 C 502.005 572, 500.922 572.274, 499.557 574.223 M 529.200 573.200 C 527.299 575.101, 527.742 579.792, 529.934 580.965 C 531.036 581.555, 538.750 582, 547.863 582 C 565.086 582, 567 581.463, 567 576.629 C 567 572.345, 565.546 572, 547.500 572 C 535.533 572, 530.040 572.360, 529.200 573.200 M 383 593 C 380.685 595.315, 380.496 596.929, 382.260 599.341 C 383.360 600.845, 385.165 601.028, 396.487 600.782 L 409.455 600.500 410.410 597.780 C 411.166 595.626, 410.983 594.638, 409.527 593.030 C 407.887 591.217, 406.476 591, 396.345 591 C 386.333 591, 384.765 591.235, 383 593 M 422 593 C 419.731 595.269, 419.565 596.318, 421.035 599.066 C 422.042 600.946, 423.795 601, 484 601 C 544.205 601, 545.958 600.946, 546.965 599.066 C 548.435 596.318, 548.269 595.269, 546 593 C 544.044 591.044, 542.667 591, 484 591 C 425.333 591, 423.956 591.044, 422 593 M 558.473 593.030 C 557.017 594.638, 556.834 595.626, 557.590 597.780 L 558.545 600.500 571.513 600.782 C 582.835 601.028, 584.640 600.845, 585.740 599.341 C 587.504 596.929, 587.315 595.315, 585 593 C 583.235 591.235, 581.667 591, 571.655 591 C 561.524 591, 560.113 591.217, 558.473 593.030" stroke="none" fill="#ffffff" fill-rule="evenodd"/><path d="M 396.804 369.041 C 389.791 372.744, 386 380.151, 386 390.149 L 386 396 394 396 L 402 396 402 392.200 C 402 390.110, 402.540 387.860, 403.200 387.200 C 404.113 386.287, 423.244 386, 483.200 386 L 562 386 562 445 L 562 504 483.200 504 C 423.244 504, 404.113 503.713, 403.200 502.800 C 402.540 502.140, 402 499.890, 402 497.800 L 402 494 393.891 494 L 385.781 494 386.154 501.250 C 386.615 510.199, 389.109 515.391, 394.923 519.500 L 399.168 522.500 427.084 522.795 L 455 523.089 455 528.594 C 455 538.306, 450.460 543, 441.067 543 C 436.689 543, 435 544.791, 435 549.434 L 435 552 484 552 L 533 552 533 549.434 C 533 544.791, 531.311 543, 526.933 543 C 517.540 543, 513 538.306, 513 528.594 L 513 523.089 540.916 522.795 L 568.832 522.500 573.077 519.500 C 575.412 517.850, 578.262 514.700, 579.411 512.500 C 581.453 508.589, 581.507 507.129, 581.802 447 C 582.018 402.843, 581.779 384.372, 580.954 381.500 C 579.333 375.858, 575.421 371.095, 570.616 368.913 C 566.701 367.135, 562.456 367.045, 483.500 367.066 C 403.130 367.088, 400.383 367.150, 396.804 369.041 M 402.757 563.069 C 401.799 563.631, 400.449 564.022, 399.757 563.937 C 397.799 563.697, 394 565.135, 394 566.117 C 394 566.602, 393.432 567, 392.739 567 C 390.999 567, 358.758 599.425, 359.631 600.297 C 360.017 600.684, 359.782 601, 359.108 601 C 358.434 601, 358.141 601.419, 358.457 601.931 C 358.774 602.443, 358.575 603.144, 358.016 603.490 C 357.457 603.835, 357 605.865, 357 608 C 357 610.135, 357.457 612.165, 358.016 612.510 C 358.575 612.856, 358.835 613.457, 358.595 613.847 C 358.354 614.237, 358.996 615.668, 360.021 617.028 L 361.886 619.500 484 619.500 L 606.114 619.500 607.979 617.028 C 609.004 615.668, 609.646 614.237, 609.405 613.847 C 609.165 613.457, 609.425 612.856, 609.984 612.510 C 610.543 612.165, 611 610.135, 611 608 C 611 605.865, 610.543 603.835, 609.984 603.490 C 609.425 603.144, 609.226 602.443, 609.543 601.931 C 609.859 601.419, 609.566 601, 608.892 601 C 608.218 601, 607.983 600.684, 608.369 600.297 C 609.242 599.425, 577.001 567, 575.261 567 C 574.568 567, 574 566.602, 574 566.117 C 574 565.239, 571.789 564.344, 567 563.283 C 562.139 562.206, 404.580 562.001, 402.757 563.069 M 401.536 573.960 C 399.477 576.235, 400.142 581, 402.519 581 C 403.334 581, 404 581.450, 404 582 C 404 582.608, 408.426 583, 415.277 583 C 423.866 583, 427.085 582.629, 428.777 581.443 C 431.177 579.763, 431.612 577.012, 429.965 573.934 C 429.024 572.176, 427.761 572, 416.120 572 C 404.668 572, 403.122 572.208, 401.536 573.960 M 440.250 573.472 C 438.128 575.922, 439.044 581, 441.607 581 C 442.373 581, 443 581.450, 443 582 C 443 582.565, 445.847 583, 449.542 583 C 457.606 583, 460.348 581.084, 459.755 575.862 L 459.373 572.500 450.437 572.265 C 443.668 572.086, 441.197 572.379, 440.250 573.472 M 470 573.500 C 470 574.325, 469.550 575, 469 575 C 467.167 575, 467.970 578.060, 470.455 580.545 C 472.561 582.652, 473.838 583, 479.455 583 C 483.152 583, 486 582.565, 486 582 C 486 581.450, 486.627 581, 487.393 581 C 490.064 581, 490.883 575.740, 488.571 573.429 C 486.464 571.321, 470 571.384, 470 573.500 M 498.908 572.250 C 498.858 572.388, 498.604 573.997, 498.344 575.827 C 497.628 580.863, 500.650 583.009, 508.403 582.968 C 511.756 582.951, 515.203 582.388, 516.062 581.718 C 518.630 579.715, 519.176 576.918, 517.500 574.359 C 516.077 572.187, 515.281 572, 507.477 572 C 502.815 572, 498.959 572.112, 498.908 572.250 M 529.200 573.200 C 527.417 574.983, 527.648 581, 529.500 581 C 530.325 581, 531 581.450, 531 582 C 531 582.626, 537.167 583, 547.500 583 C 557.833 583, 564 582.626, 564 582 C 564 581.450, 564.666 581, 565.481 581 C 567.858 581, 568.523 576.235, 566.464 573.960 C 564.834 572.159, 563.303 572, 547.545 572 C 535.543 572, 530.040 572.360, 529.200 573.200 M 382.232 592.515 C 381.535 593.306, 381.072 595.363, 381.203 597.085 C 381.535 601.433, 384.243 602.217, 397.574 601.825 C 406.303 601.569, 409.003 601.144, 410.324 599.821 C 412.464 597.678, 412.449 595.548, 410.278 593.011 C 408.719 591.191, 407.368 591.004, 396.028 591.038 C 386.420 591.067, 383.205 591.411, 382.232 592.515 M 421.232 592.515 C 419.140 594.889, 420.079 600.079, 422.786 601.109 C 424.075 601.599, 451.622 602, 484 602 C 516.378 602, 543.925 601.599, 545.214 601.109 C 548.013 600.045, 548.860 594.717, 546.591 592.448 C 544.426 590.283, 423.142 590.347, 421.232 592.515 M 557.722 593.011 C 555.551 595.548, 555.536 597.678, 557.676 599.821 C 558.997 601.144, 561.697 601.569, 570.426 601.825 C 583.782 602.218, 586.465 601.437, 586.799 597.057 C 587.211 591.653, 585.592 591, 571.794 591 C 560.659 591, 559.275 591.198, 557.722 593.011" stroke="none" fill="#252525" fill-rule="evenodd"/><path d="M 382.653 397.490 C 379.462 400.681, 380.740 403.035, 391.692 414.149 L 402.385 425 376.692 425 C 352.333 425, 350.896 425.104, 349 427 C 347.167 428.833, 347 430.333, 347 445 C 347 459.667, 347.167 461.167, 349 463 C 350.896 464.896, 352.333 465, 376.692 465 L 402.385 465 391.692 475.851 C 380.709 486.997, 379.469 489.304, 382.829 492.345 C 384.353 493.725, 387.058 493.999, 399.079 493.994 C 407.010 493.991, 415.300 493.503, 417.500 492.910 C 420.784 492.024, 425.303 488.038, 442.750 470.640 L 464 449.448 464 445.033 C 464 440.637, 463.914 440.530, 444.750 421.209 C 434.163 410.534, 423.700 400.608, 421.500 399.150 C 417.641 396.593, 416.917 396.488, 400.903 396.168 C 386.512 395.880, 384.087 396.056, 382.653 397.490" stroke="none" fill="#de3b3b" fill-rule="evenodd"/><path d="M 403.200 387.200 C 402.540 387.860, 402 390.052, 402 392.072 L 402 395.743 409.750 396.196 C 415.878 396.553, 418.337 397.188, 421.500 399.225 C 423.700 400.642, 434.163 410.534, 444.750 421.209 C 470.499 447.170, 470.590 442.756, 443.750 469.770 C 432.613 480.980, 422.150 490.869, 420.500 491.745 C 418.835 492.629, 414.051 493.542, 409.750 493.797 L 402 494.257 402 497.928 C 402 499.948, 402.540 502.140, 403.200 502.800 C 404.113 503.713, 423.244 504, 483.200 504 L 562 504 562 445 L 562 386 483.200 386 C 423.244 386, 404.113 386.287, 403.200 387.200" stroke="none" fill="#76fffb" fill-rule="evenodd"/><path d="M 503.500 104 C 505.648 106.200, 507.631 108, 507.906 108 C 508.181 108, 506.648 106.200, 504.500 104 C 502.352 101.800, 500.369 100, 500.094 100 C 499.819 100, 501.352 101.800, 503.500 104 M 169.751 133.739 C 164.334 145.332, 160.615 156.817, 158.407 168.771 C 156.404 179.615, 155.685 181.521, 155.299 177 C 153.991 161.639, 153.122 160.148, 151.107 169.799 C 148.655 181.537, 150.419 197.982, 155.127 207.281 C 157.620 212.207, 165.014 223, 165.895 223 C 166.228 223, 166.518 210.063, 166.541 194.250 C 166.585 162.955, 167.931 149.487, 172.651 133.117 C 173.980 128.507, 174.898 124.565, 174.690 124.357 C 174.482 124.149, 172.259 128.371, 169.751 133.739 M 129.550 155.750 C 119.121 170.027, 116.392 193.092, 122.460 215.686 C 125.360 226.485, 130.617 239.449, 132.821 241.239 C 134.131 242.302, 134.273 242.229, 133.728 240.775 C 132.334 237.054, 129.035 217.806, 127.930 206.944 C 125.982 187.812, 128.537 163.597, 133.520 153.962 C 135.910 149.339, 133.410 150.465, 129.550 155.750 M 529.143 171.500 C 528.933 200.148, 518.568 227.308, 498.381 252.111 C 495.421 255.748, 493 259.015, 493 259.371 C 493 260.415, 510.949 251.105, 517.500 246.664 C 529.702 238.392, 538.214 226.955, 541.469 214.458 C 543.285 207.486, 543.345 196.093, 541.595 190.500 L 540.344 186.500 539.605 192 C 539.199 195.025, 538.184 199.948, 537.350 202.940 C 535.741 208.713, 529.184 222.517, 528.416 221.749 C 528.166 221.499, 528.747 218.190, 529.709 214.397 C 531.106 208.884, 531.444 203.385, 531.391 187 C 531.352 175.036, 530.885 165.459, 530.270 164 C 529.430 162.007, 529.201 163.529, 529.143 171.500 M 568.253 212.764 C 564.170 246.385, 548.709 272.675, 523.504 288.855 C 511.801 296.368, 512.094 296.142, 515 295.410 C 520.374 294.056, 533.813 287.067, 539.876 282.472 C 553.001 272.527, 563.782 255.461, 567.970 238 C 570.265 228.428, 571.788 207.230, 570.363 204.683 C 569.700 203.500, 569.098 205.806, 568.253 212.764 M 113.358 220.491 C 113.717 225.161, 114.907 233.599, 116.002 239.241 C 117.098 244.884, 117.993 249.950, 117.993 250.500 C 117.989 253.393, 111.505 241.073, 107.873 231.272 C 105.575 225.072, 103.497 220, 103.254 220 C 103.011 220, 103.119 222.363, 103.494 225.250 C 104.820 235.466, 107.879 247.764, 111.533 257.571 C 115.310 267.708, 124.498 288, 125.311 288 C 125.558 288, 123.990 281.875, 121.825 274.389 C 119.660 266.903, 118.071 260.596, 118.293 260.373 C 118.516 260.151, 121.223 263.264, 124.308 267.291 C 127.393 271.319, 130.894 275.489, 132.088 276.557 C 134.068 278.329, 134.016 278.018, 131.497 273.022 C 128.843 267.758, 125 257.597, 125 255.843 C 125 255.380, 125.684 255, 126.520 255 C 127.812 255, 127.755 254.437, 126.136 251.250 C 123.725 246.504, 119.921 234.316, 116.928 221.750 C 115.651 216.387, 114.179 212, 113.656 212 C 113.078 212, 112.961 215.333, 113.358 220.491 M 269 228.594 C 267.075 229.428, 264.222 231.323, 262.661 232.805 C 259.660 235.654, 256.526 240.860, 257.329 241.663 C 257.592 241.925, 259.694 241.176, 262.001 239.999 C 264.309 238.822, 267.984 237.778, 270.168 237.680 L 274.139 237.500 277.957 249.061 C 280.057 255.420, 283.007 263.070, 284.513 266.061 C 288.157 273.300, 295.929 284.861, 297.889 285.958 C 299.256 286.723, 299.297 287.459, 298.202 291.668 C 295.976 300.227, 291.276 308.221, 280.954 321 C 275.401 327.875, 268.786 336.762, 266.254 340.750 C 263.723 344.738, 261.371 348, 261.028 348 C 259.750 348, 253.129 340.248, 248.116 332.881 C 242.063 323.986, 233.642 315.735, 218.889 304.243 C 195.283 285.857, 182.183 264.019, 179.533 238.641 C 179.140 234.869, 178.464 232.169, 178.033 232.641 C 175.073 235.881, 169.313 261.128, 170.477 265.763 C 171.664 270.495, 169.628 270.266, 167.480 265.425 L 165.295 260.500 164.155 264.500 C 161.089 275.260, 160.212 298.803, 162.534 308 C 163.111 310.282, 162.900 310.195, 160.110 307 L 157.054 303.500 157.027 307.199 C 156.947 318.121, 163.949 343.355, 170.519 355.829 C 172.592 359.763, 173.313 361.950, 172.426 361.610 C 171.642 361.309, 171 361.268, 171 361.520 C 171 362.517, 183.257 382.543, 186.225 386.395 C 195.880 398.928, 199.974 402.763, 208.226 407.012 C 221.502 413.847, 234.143 421.471, 239.392 425.810 L 244.266 429.837 246.722 426.919 C 248.073 425.313, 249.478 424, 249.845 424 C 250.212 424, 251.147 425.462, 251.923 427.250 C 252.700 429.038, 258.668 435.830, 265.186 442.344 C 271.704 448.858, 279.991 457.970, 283.602 462.594 C 287.212 467.217, 290.534 471, 290.984 471 C 292.029 471, 311.632 431.261, 314.122 424.093 C 316.477 417.313, 316.596 404.835, 314.446 390.128 C 312.317 375.565, 311.412 372.572, 306.861 365.036 C 297.980 350.330, 296.758 336.733, 303.130 323.500 C 306.392 316.723, 306.500 316.109, 306.500 304.250 C 306.500 297.512, 306.635 292, 306.800 292 C 306.964 292, 308.449 292.698, 310.100 293.552 C 311.750 294.405, 313.954 294.832, 314.999 294.500 C 319.055 293.213, 318.543 288.691, 312.567 273 C 310.786 268.325, 307.841 260.563, 306.022 255.750 C 304.202 250.938, 302.411 247, 302.041 247 C 301.671 247, 300.357 245.201, 299.121 243.002 C 296.032 237.505, 292.294 233.226, 287.636 229.851 C 284.398 227.506, 282.707 227.007, 278.100 227.039 C 275.020 227.061, 270.925 227.760, 269 228.594 M 269.500 230.881 C 267.300 231.891, 264.600 233.750, 263.500 235.011 L 261.500 237.305 264.610 236.706 C 266.320 236.376, 269.957 235.809, 272.691 235.447 L 277.662 234.787 281.799 239.627 C 285.499 243.955, 291.739 254, 290.729 254 C 290.511 254, 288.680 251.601, 286.661 248.670 C 282.827 243.103, 278.317 238.349, 277.575 239.092 C 276.780 239.887, 279.228 249.432, 281.615 254.842 C 284.395 261.143, 295.193 277.872, 300.055 283.410 C 301.933 285.548, 305.005 287.940, 306.882 288.724 C 310.016 290.034, 310.455 289.990, 312.259 288.185 C 314.212 286.232, 314.190 286.135, 308.491 271.860 C 296.845 242.693, 291.976 234.174, 284.800 230.415 C 281.089 228.471, 274.297 228.678, 269.500 230.881 M 78.275 251.086 C 78.613 251.864, 82.432 261.050, 86.762 271.500 C 98.812 300.586, 106.215 311.257, 131.139 335.470 C 148.781 352.610, 153.695 355.991, 141.899 342.873 C 121.479 320.166, 109.254 303.192, 99.613 284.160 C 92.313 269.749, 81.414 251.992, 78.926 250.454 C 78.065 249.922, 77.857 250.124, 78.275 251.086 M 177.324 264.599 C 175.913 268.276, 178.883 296.065, 181.694 305.492 C 182.228 307.280, 182.112 307.337, 180.563 306.052 C 178.292 304.167, 173.700 294.955, 171.439 287.750 C 168.723 279.095, 167.603 280.534, 168.327 291.750 C 169.119 304.042, 171.786 315.048, 177.531 329.741 C 180.014 336.092, 181.864 341.469, 181.643 341.691 C 181.110 342.223, 172.572 330.829, 169.178 325.055 C 165.211 318.308, 165.096 322.721, 168.976 332.782 C 174.003 345.818, 183.784 361.091, 198.463 378.826 C 202.708 383.955, 205.996 388.337, 205.769 388.564 C 204.816 389.518, 194.951 382.197, 187.750 375.192 C 183.488 371.046, 180 367.974, 180 368.366 C 180 369.874, 184.427 377.758, 188.497 383.500 C 198.079 397.018, 213.115 407.567, 230.402 412.900 C 237.802 415.182, 239.235 415.037, 236.756 412.256 C 235.227 410.541, 229 398.828, 229 397.668 C 229 397.346, 231.137 398.392, 233.750 399.992 C 238.190 402.712, 244 404.830, 244 403.729 C 244 403.461, 242.861 400.753, 241.468 397.711 C 238.831 391.950, 234.025 372.589, 234.009 367.661 L 234 364.822 237.077 367.411 C 238.769 368.835, 240.532 370, 240.995 370 C 241.458 370, 242.584 370.287, 243.497 370.637 C 244.679 371.091, 243.833 368.636, 240.567 362.134 C 236.280 353.597, 230 338.814, 230 337.258 C 230 336.879, 232.363 338.856, 235.250 341.653 C 240.507 346.744, 248.053 352.280, 248.765 351.568 C 248.974 351.360, 246.974 348.488, 244.322 345.187 C 241.670 341.886, 237.250 334.997, 234.500 329.878 C 228.725 319.128, 222.702 312.371, 208.038 300.190 C 196.587 290.678, 192.779 286.168, 184.446 272.250 C 181.400 267.163, 178.690 263, 178.423 263 C 178.156 263, 177.661 263.720, 177.324 264.599 M 470 269.530 C 464.948 274.723, 452.545 283.262, 443.500 287.773 C 440.200 289.420, 427.696 294.873, 415.713 299.893 C 389.193 311.002, 377.198 316.948, 365.458 324.805 C 349.103 335.750, 344.229 341.209, 340.103 353.200 C 337.403 361.049, 335.070 375.571, 334.338 389.091 L 333.710 400.682 337.693 406.591 C 339.883 409.841, 343.378 415.565, 345.458 419.311 C 348.101 424.071, 349.680 425.953, 350.702 425.561 C 351.506 425.252, 359.363 425, 368.161 425 L 384.159 425 383.447 418.250 C 383.055 414.538, 382.165 409.284, 381.469 406.575 C 380.048 401.051, 381.002 397.451, 384.152 396.452 C 385.703 395.959, 386.004 394.793, 386.022 389.183 C 386.046 381.930, 388.179 375.869, 391.859 372.595 C 393.036 371.547, 394 370.310, 394 369.845 C 394 368.363, 380.144 368.913, 376.218 370.551 C 371.512 372.513, 366.397 377.389, 363.843 382.347 C 362.752 384.463, 361.636 385.969, 361.361 385.695 C 360.363 384.696, 362.975 373.983, 365.370 369.257 C 366.721 366.591, 369.778 362.441, 372.163 360.036 L 376.500 355.663 370.174 359.011 C 361.409 363.651, 353.712 372.370, 346.620 385.690 L 340.865 396.500 341.432 382.500 C 342.624 353.055, 347.655 344.375, 373.574 327.043 C 390.269 315.879, 401.935 310.474, 437.500 297.422 C 451.093 292.433, 457.781 288.918, 462.367 284.351 L 466.234 280.500 465.497 284 C 464.297 289.701, 459.600 299.136, 455.227 304.630 C 452.981 307.451, 447.699 312.063, 443.488 314.880 C 439.278 317.696, 436.307 320, 436.887 320 C 439.110 320, 454.506 313.905, 459.729 310.957 C 462.739 309.259, 465.462 308.128, 465.779 308.445 C 466.922 309.588, 463.957 324.216, 461.551 329.300 C 456.936 339.056, 444.350 348.986, 431.500 353.010 C 426.121 354.695, 425.555 355.100, 427.143 356.129 C 429.639 357.745, 444.067 362, 447.052 362 C 450.560 362, 450.835 363.302, 447.777 365.443 C 445.688 366.907, 446.038 367, 453.652 367 L 461.750 367 462.375 363.875 C 463.476 358.368, 463.274 358.228, 457.585 360.557 C 456.027 361.194, 456.236 360.515, 458.700 356.920 C 466.143 346.066, 469.734 335.609, 472.456 316.872 C 474.117 305.437, 474.398 300, 473.329 300 C 472.960 300, 471.812 300.765, 470.778 301.701 C 469.004 303.307, 469.012 303.139, 470.925 298.676 C 473.764 292.052, 475.155 282.914, 474.802 273.202 L 474.500 264.904 470 269.530 M 565.049 310.046 C 552.887 326.747, 533.784 339.683, 509.531 347.642 C 498.369 351.304, 500.125 352.073, 513.750 349.488 C 534.032 345.641, 554.185 335.313, 562.383 324.565 C 567.037 318.463, 572.535 304, 570.201 304 C 569.789 304, 567.470 306.720, 565.049 310.046 M 287.465 327.153 C 282.654 333.685, 275.430 347.983, 270.487 360.756 C 268.943 364.747, 267.480 367.813, 267.236 367.570 C 266.280 366.614, 270.343 350.037, 273.599 341.607 C 275.490 336.710, 276.873 332.540, 276.673 332.340 C 276.025 331.692, 267.252 345.543, 263.187 353.632 C 256.758 366.422, 254.847 373.806, 254.261 388.107 C 253.410 408.889, 257.147 422.652, 268.038 438.852 C 273.463 446.920, 286.195 461, 288.067 461 C 289.384 461, 294.678 449.121, 296.478 442.129 C 300.355 427.064, 300.419 406.783, 296.618 397.669 L 295.297 394.500 294.032 400.500 C 293.337 403.800, 292.068 408.300, 291.211 410.500 C 289.543 414.787, 283.107 425.455, 282.549 424.859 C 282.364 424.662, 282.855 421.575, 283.641 418 C 285.110 411.316, 286.801 374.001, 285.584 375.131 C 285.210 375.479, 283.847 380.879, 282.556 387.131 C 278.980 404.444, 278.139 405.517, 278.063 392.860 C 277.978 378.587, 282.091 357.696, 290.112 331.655 C 291.780 326.241, 292.918 321.585, 292.642 321.308 C 292.365 321.032, 290.036 323.662, 287.465 327.153 M 130 384.712 C 130 386.281, 137.625 398.952, 142.694 405.806 C 153.184 419.991, 168.189 432.614, 183.929 440.496 C 190.537 443.805, 193.559 444.900, 211.725 450.566 C 219.548 453.006, 228.511 456.136, 231.641 457.520 C 239.807 461.131, 252.570 469.918, 259.250 476.526 C 262.413 479.655, 265 481.786, 265 481.262 C 265 478.860, 256.006 466.781, 249.115 459.928 C 232.887 443.792, 212.717 432.485, 185 423.987 C 179.225 422.216, 171.971 419.493, 168.880 417.935 C 161.155 414.041, 150.253 405.123, 139.250 393.696 C 134.162 388.413, 130 384.370, 130 384.712 M 386.257 411 C 387.042 412.925, 388.250 416.863, 388.942 419.750 C 390.193 424.971, 390.221 425, 394.100 425 C 400.189 425, 399.419 421.837, 391.415 413.971 C 385.218 407.882, 384.914 407.707, 386.257 411 M 324.317 436.250 C 322.959 446.198, 317.808 460.544, 305.907 487.528 C 301.049 498.543, 296.573 509.893, 295.960 512.749 C 294.565 519.256, 295.798 525.971, 300.691 538.500 C 304.127 547.299, 312.795 563.998, 313.929 564.002 C 314.243 564.003, 314.351 561.126, 314.169 557.609 C 313.565 545.926, 315.948 536.599, 328.904 499.923 C 333.745 486.217, 335.225 474.930, 333.941 461.501 C 332.929 450.915, 327.324 428, 325.746 428 C 325.580 428, 324.936 431.712, 324.317 436.250 M 363.431 467.750 C 364.736 473.840, 365.940 485.933, 365.969 493.250 C 365.986 497.512, 366.288 501, 366.639 501 C 368.188 501, 381 489.763, 381 488.405 C 381 487.575, 384.098 483.623, 387.884 479.623 C 393.791 473.382, 398 467.526, 398 465.550 C 398 465.247, 395.975 465, 393.500 465 C 391.025 465, 389 465.442, 389 465.981 C 389 467.278, 376.190 480.828, 373.709 482.156 C 371.837 483.158, 371.796 482.889, 372.492 474.096 L 373.212 465 368.027 465 C 362.893 465, 362.847 465.028, 363.431 467.750 M 321.868 480.500 C 321.520 481.050, 320.903 483.075, 320.498 485 C 319.208 491.122, 314.485 500.268, 308.671 507.902 C 305.552 511.997, 302.745 516.845, 302.387 518.751 C 301.324 524.416, 302.651 532.384, 305.611 538.113 L 308.394 543.500 309.205 538 C 311.003 525.801, 312.365 521.095, 316.674 512.197 C 319.765 505.814, 321.482 500.708, 322.144 495.931 C 323.147 488.692, 322.969 478.758, 321.868 480.500 M 218.493 507.250 C 222.153 511.238, 226.971 517.650, 229.198 521.500 C 233.890 529.609, 242.902 539.300, 251.542 545.525 C 257.723 549.979, 271.351 557, 273.815 557 C 274.586 557, 273.285 554.780, 270.843 551.929 C 268.454 549.139, 262 540.938, 256.500 533.704 C 244.973 518.543, 235.451 509.927, 223.634 503.967 C 211.660 497.928, 210.573 498.622, 218.493 507.250 M 378.977 514.728 C 374.504 517.303, 367.430 523.500, 356.113 534.758 C 347.100 543.724, 339.962 551.295, 340.250 551.583 C 340.538 551.871, 343.862 550.125, 347.637 547.704 C 351.411 545.282, 363.835 538.252, 375.244 532.081 L 395.987 520.860 393.215 518.527 C 391.690 517.244, 389.816 515.025, 389.052 513.597 C 388.287 512.169, 387.165 511, 386.558 511 C 385.951 511, 382.540 512.678, 378.977 514.728" stroke="none" fill="#c6a23a" fill-rule="evenodd"/><path d="M 259.500 2.445 C 241.874 5.550, 231.545 8.128, 214.807 13.598 C 102.576 50.278, 21.041 145.542, 2.001 262.238 C 0.209 273.221, 0 279.248, 0 320 C 0 360.752, 0.209 366.779, 2.001 377.762 C 23.878 511.842, 128.158 616.122, 262.238 637.999 C 273.225 639.792, 279.248 640, 320.171 640 C 364.005 640, 366.417 639.902, 380.171 637.560 C 397.139 634.671, 413.191 630.582, 429 625.124 L 440.500 621.153 415.500 621.091 C 396.481 621.044, 388.962 621.392, 384.069 622.545 C 364.492 627.160, 354.628 628, 320 628 C 291.249 628, 284.762 627.716, 274.238 625.999 C 140.158 604.122, 35.878 499.842, 14.001 365.762 C 12.284 355.238, 12 348.751, 12 320 C 12 291.249, 12.284 284.762, 14.001 274.238 C 35.878 140.158, 140.158 35.878, 274.238 14.001 C 284.762 12.284, 291.249 12, 320 12 C 348.751 12, 355.238 12.284, 365.762 14.001 C 499.842 35.878, 604.122 140.158, 625.999 274.238 C 627.716 284.762, 628 291.249, 628 320 C 628 348.751, 627.716 355.238, 625.999 365.762 C 619.753 404.040, 605.588 443.551, 587.313 473.662 L 582.556 481.500 582.021 495.674 C 581.503 509.404, 581.392 509.983, 578.480 514.174 C 574.213 520.313, 568.434 523.003, 559.538 522.990 L 552.500 522.979 542.468 533.436 C 532.707 543.612, 532.447 544.002, 532.823 547.946 L 533.210 552 528.220 552 C 523.763 552, 522.630 552.494, 517.615 556.622 C 514.527 559.165, 512 561.415, 512 561.622 C 512 561.830, 517.799 562, 524.886 562 L 537.773 562 548.778 551.087 C 584.864 515.305, 610.612 473.505, 626.490 424.926 C 631.616 409.241, 636.181 390.394, 638.097 377 C 638.766 372.325, 639.693 368.072, 640.157 367.550 C 641.242 366.328, 641.269 270.716, 640.184 271.387 C 639.735 271.664, 638.797 267.862, 638.100 262.937 C 636.198 249.498, 631.756 231.188, 626.485 215.062 C 589.717 102.559, 494.577 21.061, 377.762 2.001 C 366.692 0.195, 360.981 0.008, 319 0.077 C 275.179 0.150, 271.751 0.286, 259.500 2.445 M 267.105 52.546 C 258.570 54.398, 249.315 57.508, 239 61.989 C 209.991 74.594, 185.608 96.472, 163.761 129.500 C 148.624 152.384, 139.156 180.940, 138.918 204.426 C 138.839 212.320, 138.805 212.427, 137.405 209.224 C 136.617 207.422, 135.465 201.572, 134.844 196.224 C 133.425 183.995, 134.973 173.252, 141.359 151 C 146.860 131.835, 147.725 127.686, 148.577 116.400 C 149.694 101.608, 145.501 85.254, 139.141 79.595 C 136.437 77.189, 136.450 77.346, 139.666 85.631 C 141.723 90.928, 142.348 94.330, 142.399 100.500 C 142.473 109.341, 143.195 107.259, 129.736 137.006 C 118.740 161.306, 110.285 186.881, 108.456 201.371 C 107.731 207.113, 107.270 206.751, 103.527 197.500 C 96.271 179.567, 87.740 165.799, 80.843 160.888 L 77.546 158.540 80.808 163.083 C 85.447 169.543, 88.497 179.168, 92.558 200.170 C 101.932 248.644, 104.251 258.257, 110.121 273 C 112.862 279.883, 120.782 294.640, 126.158 302.883 C 128.343 306.232, 128.344 306.254, 126.270 305.145 C 122.809 303.292, 115.311 294.187, 107.213 282 C 91.199 257.902, 78.845 243.721, 68.167 237.183 L 62.835 233.917 65.349 237.214 C 68.653 241.545, 72.583 250.422, 79.011 268.072 C 85.696 286.430, 90.858 296.706, 101.063 311.972 C 116.417 334.942, 138.123 354.666, 163.232 368.465 C 169.313 371.806, 170.448 372.956, 174.950 380.332 C 177.691 384.824, 181.738 390.750, 183.943 393.500 C 186.148 396.250, 187.500 398.654, 186.947 398.843 C 184.908 399.539, 175.266 396.657, 167.296 392.969 C 162.784 390.881, 154.920 386.321, 149.821 382.836 C 136.010 373.396, 112.175 349.717, 97.236 330.593 C 95.991 328.999, 94.783 327.884, 94.551 328.116 C 93.907 328.760, 96.630 350.486, 98.485 359.500 C 99.390 363.900, 101.865 372.726, 103.985 379.112 C 120.914 430.120, 154.033 456.538, 215.500 468.068 C 234.714 471.671, 243.383 474.786, 253.675 481.784 C 260.988 486.756, 270.396 496.161, 273.742 501.844 C 276.121 505.884, 276.220 506.537, 275.150 511.170 C 271.648 526.340, 276.465 540.448, 287.778 548.162 C 294.311 552.617, 298.813 557.611, 301.604 563.500 C 304.538 569.692, 303.437 570.262, 295.532 566.643 C 282.098 560.493, 272.693 547.459, 261.080 518.899 C 256.696 508.117, 255.373 505.879, 250.938 501.739 C 242.190 493.575, 230.836 488.951, 206 483.439 C 201.875 482.523, 194.472 480.265, 189.549 478.421 C 184.627 476.577, 180.412 475.254, 180.184 475.482 C 179.473 476.194, 186.526 488.079, 193.523 497.961 C 212.204 524.343, 238.940 549.929, 256.329 558.067 C 259.756 559.670, 266.597 561.847, 271.530 562.903 C 288.633 566.565, 299.828 572.774, 311.352 584.990 C 317.588 591.601, 318.215 592, 322.353 592 L 326.742 592 327.425 586.855 C 329.927 567.992, 348.383 555.290, 401.175 536.096 C 414.746 531.162, 427.571 526.217, 429.675 525.107 L 433.500 523.088 417.899 523.044 C 409.319 523.020, 400.946 522.528, 399.293 521.952 C 396.502 520.979, 394.680 521.780, 373.893 533.119 C 361.577 539.836, 348.855 547.075, 345.622 549.205 C 342.389 551.334, 339.556 552.890, 339.328 552.661 C 338.543 551.876, 357.746 531.492, 365.858 524.500 C 370.325 520.650, 376.797 515.901, 380.240 513.947 L 386.500 510.394 386.139 502.554 C 385.817 495.555, 385.496 494.468, 383.139 492.424 L 380.500 490.135 377.500 492.914 C 373.822 496.320, 367.546 501, 366.656 501 C 366.295 501, 365.996 498.188, 365.992 494.750 C 365.984 488.521, 364.499 472.974, 363.413 467.750 C 362.867 465.124, 362.574 465, 356.921 465 C 347.363 465, 347 464.285, 347 445.434 C 347 436.576, 347.448 429.032, 348.039 427.926 C 349.112 425.923, 346.260 420.225, 337.035 405.938 L 333.444 400.377 334.206 387.938 C 335.063 373.938, 337.952 357.885, 341.165 349.271 C 342.771 344.964, 344.989 341.838, 349.909 336.946 C 362.598 324.327, 379.951 314.492, 416 299.484 C 447.509 286.367, 459.078 279.879, 469.451 269.506 L 474.804 264.152 475.183 268.120 C 475.843 275.038, 474.147 290.283, 472.037 296.404 L 470.002 302.309 472.149 300.404 L 474.296 298.500 473.662 307.500 C 472.338 326.317, 467.554 343.739, 460.873 354.076 C 456.818 360.349, 456.934 360.689, 462.365 358.462 C 463.880 357.841, 464.124 358.055, 463.663 359.599 C 463.351 360.644, 462.800 362.738, 462.439 364.250 L 461.783 367 494.010 367 L 526.238 367 534.369 361.338 C 545.582 353.529, 553.478 346.848, 558.118 341.243 C 562.636 335.786, 569.640 322.668, 573.466 312.500 C 576.259 305.074, 582.002 284.522, 581.989 282 C 581.985 281.175, 580.265 283.200, 578.167 286.500 C 567.608 303.111, 544.908 320.270, 518.466 331.630 C 512.630 334.137, 507.656 335.989, 507.412 335.746 C 507.169 335.502, 510.541 333.194, 514.906 330.617 C 528.839 322.389, 540.222 313.761, 550.023 304 C 557.797 296.257, 560.416 292.835, 564.177 285.500 C 573.766 266.802, 578.219 246.004, 578.310 219.500 C 578.354 206.753, 577.927 200.514, 576.605 194.561 C 574.384 184.565, 569.973 172.404, 566.538 166.807 L 563.894 162.500 564.672 170.500 C 567.230 196.816, 563.459 221.358, 553.982 240.067 C 548.505 250.879, 534.463 268, 531.072 268 C 530.515 268, 532.477 263.163, 535.433 257.250 C 550.970 226.171, 552.716 199.971, 541.548 165.500 C 537.523 153.078, 526.865 132.553, 518.959 122 C 512.188 112.962, 500.024 99.643, 499.249 100.418 C 499.049 100.618, 500.426 103.193, 502.308 106.141 C 515.291 126.465, 522 148.399, 522 170.522 C 522 192.706, 516.691 209.865, 503.921 228.957 C 497.425 238.668, 485.292 252.299, 483.906 251.442 C 483.408 251.134, 483 249.559, 483 247.941 C 483 243.819, 481.883 244.271, 479.099 249.520 C 471.958 262.980, 441.331 283.431, 398.951 303.038 C 353.545 324.046, 343.718 330.268, 335.821 343.014 C 332.821 347.856, 328.998 360.171, 328.358 367.054 C 328.003 370.874, 327.238 374, 326.657 374 C 324.856 374, 316.607 364.531, 313.607 359.019 C 311.671 355.463, 310.592 351.785, 310.256 347.604 C 309.828 342.271, 310.195 340.393, 312.960 333.752 C 314.719 329.526, 318.494 322.341, 321.350 317.784 L 326.542 309.500 333.616 309.844 C 342.048 310.255, 348.860 307.803, 353.988 302.513 L 357.239 299.158 353.180 299.703 C 344.243 300.901, 342.390 298.893, 336.187 281.283 C 329.906 263.450, 323.073 253.836, 313.500 249.358 C 307.301 246.459, 302.436 246.162, 303.518 248.750 C 307.538 258.357, 317.185 285.306, 317.654 288.238 C 318.644 294.429, 315.121 296.665, 309.200 293.604 L 306.500 292.207 306.500 304.854 C 306.500 317.307, 306.446 317.607, 303 324.500 C 299.749 331.003, 299.505 332.139, 299.575 340.500 C 299.660 350.710, 301.808 357.589, 307.491 365.851 C 309.340 368.538, 311.304 372.483, 311.856 374.618 C 314.032 383.028, 316.156 399.999, 316.222 409.500 C 316.280 417.893, 315.888 420.545, 313.780 426 C 310.825 433.651, 292.454 470.602, 291.229 471.358 C 290.766 471.645, 287.943 468.644, 284.957 464.689 C 281.970 460.735, 273.624 451.425, 266.411 444 C 259.197 436.575, 252.492 428.940, 251.510 427.034 L 249.725 423.567 246.870 426.987 L 244.015 430.407 240.757 427.348 C 235.916 422.803, 229.988 419.060, 215 411.087 C 203.787 405.122, 200.392 402.749, 194.957 397.080 C 185.141 386.840, 167.011 358.639, 171.303 360.286 C 172.557 360.767, 171.992 358.951, 169.093 353.185 C 165.129 345.301, 161.012 332.920, 159.057 323 C 157.345 314.319, 156.286 304, 157.106 304 C 157.518 304, 159.061 305.463, 160.534 307.250 C 162.217 309.292, 162.948 309.757, 162.500 308.500 C 159.956 301.365, 161.263 271.052, 164.435 263.604 L 165.757 260.500 167.808 265 L 169.859 269.500 169.947 264.500 C 170.119 254.697, 176.923 230.216, 179.100 231.562 C 179.595 231.868, 180 234.707, 180 237.871 C 180 244.497, 182.920 256.502, 186.504 264.604 C 193.040 279.383, 205.858 294.204, 224.197 308.187 C 236.632 317.669, 242.592 323.918, 250.723 336 C 255.494 343.089, 260.608 348.847, 261.311 347.921 C 261.486 347.689, 264.146 343.675, 267.222 339 C 270.298 334.325, 277.094 325.181, 282.324 318.679 C 291.818 306.877, 295.836 300.037, 298.004 291.987 C 298.954 288.458, 298.897 287.468, 297.672 286.243 C 295.549 284.120, 294.325 285.347, 293.575 290.351 C 292.474 297.693, 286.644 308.394, 279.739 315.746 C 276.250 319.461, 270.772 326.243, 267.566 330.819 C 264.360 335.394, 261.424 338.769, 261.042 338.319 C 260.659 337.868, 258.273 334.536, 255.739 330.913 C 249.788 322.405, 237.924 310.461, 215.317 290.219 C 204.305 280.359, 195.989 272.077, 194.231 269.219 C 186.370 256.438, 183.491 238.359, 186.216 218.883 C 187.092 212.622, 187.662 207.348, 187.482 207.161 C 187.303 206.975, 185.059 210.459, 182.495 214.904 C 179.931 219.348, 177.467 223.211, 177.019 223.488 C 174.771 224.878, 171.615 193.854, 172.291 177 C 174.273 127.567, 194.492 93.066, 236 68.291 C 245.446 62.653, 256.055 58.027, 268 54.336 C 278.819 50.993, 278.373 50.102, 267.105 52.546 M 174.130 124.343 C 169.451 129.981, 160.346 155.768, 157.905 170.294 C 157.193 174.532, 156.248 178, 155.805 178 C 155.362 178, 154.955 175.412, 154.900 172.250 C 154.845 169.088, 154.467 165.375, 154.060 164 C 153.396 161.759, 153.145 162.069, 151.639 167 C 148.471 177.373, 149.640 195.329, 154.173 205.904 C 156.470 211.262, 164.682 223, 166.134 223 C 166.831 223, 166.944 217.235, 166.481 205.250 C 165.395 177.139, 167.933 149.814, 173.378 131.018 C 174.655 126.608, 175.598 123, 175.472 123 C 175.347 123, 174.743 123.604, 174.130 124.343 M 130.429 154.250 C 116.120 171.170, 115.477 205.883, 128.940 234.613 C 131.183 239.399, 133.230 243.103, 133.489 242.845 C 133.748 242.586, 132.856 236.731, 131.508 229.835 C 125.510 199.166, 126.060 173.758, 133.111 155.750 C 135.279 150.212, 134.305 149.667, 130.429 154.250 M 529.100 169.619 C 528.823 200.321, 519.380 225.417, 498.112 251.978 C 494.818 256.091, 492.284 259.618, 492.481 259.814 C 493.299 260.633, 510.518 251.762, 517.559 246.894 C 530.331 238.065, 538.153 227.623, 541.547 214.869 C 543.287 208.334, 543.305 194.951, 541.582 189.500 L 540.318 185.500 539.530 191.500 C 538.459 199.662, 535.423 209.332, 531.753 216.268 C 530.075 219.440, 528.579 221.913, 528.429 221.762 C 528.278 221.611, 528.902 218.566, 529.816 214.994 C 531.117 209.904, 531.462 203.960, 531.412 187.500 C 531.376 175.925, 530.866 164.705, 530.274 162.500 C 529.324 158.959, 529.189 159.777, 529.100 169.619 M 569 205.265 C 569 211.447, 565.868 227.381, 562.876 236.420 C 554.929 260.433, 542.098 276.860, 520.832 290.250 C 510.723 296.615, 510.930 297.340, 521.647 293.111 C 552.669 280.869, 571 250.738, 571 211.987 C 571 207.109, 570.550 202.840, 570 202.500 C 569.409 202.135, 569 203.264, 569 205.265 M 113.375 221.250 C 113.748 226.887, 114.905 235.549, 115.946 240.498 C 116.987 245.446, 117.683 249.651, 117.492 249.841 C 116.713 250.620, 110.822 238.932, 107.995 231 C 106.329 226.325, 104.554 221.600, 104.051 220.500 C 103.216 218.677, 103.129 218.731, 103.068 221.119 C 102.965 225.108, 105.838 240.680, 108.059 248.171 C 111.484 259.719, 124.497 289.836, 125.590 288.743 C 125.974 288.359, 121.031 269.971, 118.455 262.198 C 117.645 259.755, 119.887 262.045, 126.609 270.528 C 130.304 275.191, 133.466 278.867, 133.635 278.698 C 133.804 278.529, 132.221 274.365, 130.116 269.445 C 125.281 258.145, 124.413 254.837, 126.488 255.634 C 128.413 256.372, 128.521 256.868, 124.688 247.418 C 122.885 242.973, 119.855 232.963, 117.955 225.173 C 116.055 217.383, 114.094 211.007, 113.598 211.004 C 113.077 211.002, 112.982 215.324, 113.375 221.250 M 79.657 254.750 C 81.058 257.913, 84.447 266.125, 87.188 273 C 89.928 279.875, 93.815 288.650, 95.825 292.500 C 101.234 302.861, 112.913 317.843, 125.427 330.472 C 137.004 342.155, 149.758 353.575, 150.454 352.880 C 150.677 352.656, 147.223 348.429, 142.778 343.487 C 122.075 320.465, 107.569 300.286, 98.888 282.431 C 92.940 270.197, 79.708 249, 78.018 249 C 77.519 249, 78.256 251.588, 79.657 254.750 M 321.410 269.375 C 320.211 272.498, 321.424 274.500, 324.514 274.500 C 327.165 274.500, 327.500 274.164, 327.500 271.500 C 327.500 268.969, 327.069 268.450, 324.744 268.183 C 322.986 267.981, 321.779 268.412, 321.410 269.375 M 0.463 320 C 0.463 346.675, 0.592 357.587, 0.749 344.250 C 0.907 330.913, 0.907 309.087, 0.749 295.750 C 0.592 282.413, 0.463 293.325, 0.463 320 M 56.023 276.554 C 63.775 294.639, 68 317.095, 68 340.217 C 68 358.281, 69.165 366.501, 73.637 380 C 76.481 388.585, 82.537 401.013, 87.123 407.679 C 96.443 421.225, 113.435 435.046, 125 438.487 C 126.926 439.060, 126.582 438.556, 123.500 436.289 C 118.045 432.276, 110.552 424.667, 107.117 419.651 C 99.463 408.477, 96.967 400.979, 91.923 374.019 C 83.489 328.946, 78.878 311.871, 70.448 294.500 C 66.056 285.449, 56.846 272, 55.041 272 C 54.507 272, 54.950 274.050, 56.023 276.554 M 565.841 308.750 C 554.713 324.992, 531.531 340.849, 509 347.631 C 504.325 349.038, 499.873 350.382, 499.107 350.618 C 498.341 350.854, 497.919 351.252, 498.169 351.502 C 498.419 351.753, 502.871 351.308, 508.062 350.513 C 541.375 345.415, 563.534 331.168, 569.412 311.068 C 570.285 308.081, 571 305.269, 571 304.818 C 571 302.746, 568.814 304.412, 565.841 308.750 M 560.924 352.603 C 559.591 354.034, 555.211 357.859, 551.191 361.103 L 543.881 367 550.834 367 C 556.517 367, 557.916 366.681, 558.498 365.250 C 559.959 361.661, 563.871 350, 563.615 350 C 563.468 350, 562.258 351.171, 560.924 352.603 M 130.003 384.822 C 129.999 386.447, 133.860 393.225, 140.072 402.500 C 150.493 418.059, 166.254 431.839, 183.393 440.376 C 188.402 442.871, 199.475 447.007, 208 449.567 C 232.485 456.919, 244.978 463.499, 258.539 476.185 C 262.122 479.537, 265.269 482.065, 265.531 481.802 C 266.737 480.596, 256.833 467.589, 248.125 458.942 C 232.477 443.402, 216.790 434.564, 187.227 424.631 C 178.276 421.623, 168.950 417.989, 166.502 416.554 C 158.972 412.141, 147.460 402.320, 138.527 392.689 C 133.840 387.635, 130.004 384.095, 130.003 384.822 M 324.318 435.249 C 322.933 445.404, 316.973 462.082, 305.465 488 C 295.190 511.142, 294.058 515.790, 296.288 525.666 C 298.705 536.368, 311.387 564, 313.881 564 C 314.312 564, 314.470 561.638, 314.233 558.750 C 313.352 548.045, 316.457 535.502, 328.408 501.500 C 334.201 485.017, 335.597 475.327, 334.151 461.647 C 333.066 451.384, 328.999 433.784, 326.697 429.391 C 325.554 427.209, 325.344 427.725, 324.318 435.249 M 103.066 448.687 C 103.845 449.684, 106.999 453.425, 110.076 457 C 115.522 463.329, 118.764 467.875, 128.399 482.691 C 133.684 490.818, 140.106 496.975, 150.914 504.275 C 164.999 513.788, 185.742 522.012, 199.828 523.667 L 205.380 524.320 184.263 501.873 C 163.153 479.434, 156.626 473.772, 140.735 464.115 C 127.097 455.826, 113.203 449.452, 104.575 447.527 C 101.865 446.922, 101.754 447.007, 103.066 448.687 M 396.662 468.775 L 394.824 472.500 398.412 469.054 C 402.547 465.083, 402.588 464.992, 400.250 465.025 C 399.239 465.039, 397.724 466.622, 396.662 468.775 M 218.653 508.315 C 222.982 512.889, 228.061 519.514, 229.940 523.039 C 234.001 530.657, 243.988 540.844, 253.777 547.351 C 260.429 551.774, 274.754 558.580, 275.609 557.724 C 275.834 557.500, 272.948 553.757, 269.197 549.408 C 265.445 545.059, 259.372 537.395, 255.701 532.377 C 245.146 517.950, 231.382 506.233, 219.839 501.847 C 210.281 498.215, 210.088 499.267, 218.653 508.315 M 390.250 601.739 C 393.413 601.937, 398.587 601.937, 401.750 601.739 C 404.913 601.541, 402.325 601.378, 396 601.378 C 389.675 601.378, 387.087 601.541, 390.250 601.739 M 453.750 601.749 C 470.388 601.903, 497.613 601.903, 514.250 601.749 C 530.888 601.596, 517.275 601.470, 484 601.470 C 450.725 601.470, 437.113 601.596, 453.750 601.749 M 566.250 601.739 C 569.413 601.937, 574.587 601.937, 577.750 601.739 C 580.913 601.541, 578.325 601.378, 572 601.378 C 565.675 601.378, 563.087 601.541, 566.250 601.739" stroke="none" fill="#6e5a20" fill-rule="evenodd"/><path d="M 271.500 14.445 C 253.874 17.550, 243.545 20.128, 226.807 25.598 C 114.576 62.278, 33.041 157.542, 14.001 274.238 C 12.284 284.762, 12 291.249, 12 320 C 12 348.751, 12.284 355.238, 14.001 365.762 C 35.878 499.842, 140.158 604.122, 274.238 625.999 C 284.770 627.717, 291.249 628, 320.171 628 C 351.603 628, 354.794 627.834, 368.171 625.499 C 390.574 621.589, 391.329 621.220, 377.154 621.102 C 359.905 620.959, 357 618.974, 357 607.331 L 357 601.756 365.177 593.378 C 369.675 588.770, 372.937 585.001, 372.427 585.001 C 371.917 585.002, 367.900 585.634, 363.500 586.406 C 359.100 587.177, 349.425 588.343, 342 588.996 C 334.575 589.649, 328.350 590.592, 328.167 591.092 C 327.744 592.244, 317.721 592.289, 316.450 591.144 C 315.927 590.673, 308.598 589.752, 300.162 589.097 C 235.621 584.083, 178.008 558.183, 132.131 513.558 C 84.537 467.263, 56.790 408.456, 50.948 341.500 C 49.600 326.055, 50.159 301.036, 52.177 286.500 C 52.864 281.550, 53.443 275.850, 53.463 273.833 C 53.483 271.817, 53.710 270.376, 53.966 270.632 C 54.222 270.889, 55.232 267.364, 56.209 262.799 C 57.187 258.235, 59.182 250.277, 60.642 245.116 L 63.297 235.732 60.898 233.799 L 58.500 231.866 60.857 233.026 C 63.776 234.461, 64.129 234.055, 66.964 226 C 70.366 216.335, 78.042 199.492, 83.332 190.086 C 85.899 185.520, 88 181.163, 88 180.403 C 88 177.290, 82.637 165.936, 79.358 162.105 C 77.425 159.847, 76.193 158, 76.618 158 C 78.704 158, 85.588 163.975, 89.012 168.756 L 92.856 174.124 97.837 166.742 C 105.639 155.179, 114.512 144.402, 125.639 132.969 C 143.442 114.679, 146.439 103.268, 138.562 83.768 C 137.191 80.374, 136.211 77.456, 136.383 77.283 C 136.556 77.111, 137.957 78.214, 139.497 79.735 C 144.733 84.905, 149 97.217, 149 107.153 L 149 111.034 155.250 106.134 C 173.637 91.720, 199.818 77.107, 225.500 66.924 C 252.696 56.142, 256.725 54.731, 266.969 52.407 C 278.874 49.706, 287.483 49.154, 277.703 51.719 C 270.048 53.726, 271.135 54.483, 279.685 53.100 C 359.935 40.111, 446.821 67.520, 505.883 124.455 C 512.660 130.988, 515.053 132.806, 514.501 131 C 513.257 126.931, 506.152 113.211, 500.928 104.787 L 496.067 96.949 499.543 99.601 C 504.695 103.531, 516.356 117.267, 523.174 127.439 C 530.206 137.930, 534.959 147.103, 539.628 159.193 C 541.486 164.004, 545.420 171.667, 548.370 176.220 C 551.320 180.774, 555.931 188.654, 558.617 193.732 C 561.303 198.809, 563.837 202.972, 564.250 202.982 C 565.383 203.009, 565.149 178.213, 563.933 169.473 C 563.346 165.253, 563.059 161.608, 563.294 161.372 C 564.042 160.624, 571.044 174.780, 573.505 182.015 C 577.770 194.555, 579.353 207.576, 578.720 224.913 C 578.197 239.246, 578.341 241.122, 580.595 249.466 C 591.417 289.517, 592.750 332.443, 584.456 373.721 C 582.049 385.700, 582 386.902, 582.019 434.221 L 582.038 482.500 585.192 477.500 C 586.926 474.750, 591.186 467.069, 594.659 460.431 C 609.827 431.434, 620.586 398.934, 625.999 365.762 C 627.716 355.238, 628 348.751, 628 320 C 628 291.249, 627.716 284.762, 625.999 274.238 C 604.122 140.158, 499.842 35.878, 365.762 14.001 C 355.101 12.262, 348.996 12.010, 319 12.077 C 287.702 12.147, 283.294 12.367, 271.500 14.445 M 272.120 230.101 C 268.129 231.310, 264 233.863, 264 235.122 C 264 235.616, 267.011 235.745, 270.750 235.410 L 277.500 234.807 281.206 238.653 C 284.627 242.203, 294 257.337, 294 259.310 C 294 259.781, 291.753 256.867, 289.006 252.834 C 279.147 238.356, 276.522 236.642, 278.951 246.268 C 280.684 253.134, 284.496 260.623, 291.829 271.571 C 300.941 285.174, 306.946 290.386, 311.498 288.639 C 314.495 287.489, 313.138 283.093, 301.262 255.500 C 295.025 241.010, 291.480 235.190, 286.906 231.933 C 283.353 229.403, 277.016 228.618, 272.120 230.101 M 177.528 266.832 C 176.602 272.315, 178.909 293.450, 181.668 304.750 C 181.970 305.988, 181.813 307, 181.320 307 C 179.832 307, 174.300 296.947, 171.827 289.750 C 170.551 286.038, 169.106 283, 168.616 283 C 167.299 283, 168.799 299.234, 170.974 308.520 C 172.743 316.070, 175.884 325.343, 180.960 338 L 183.166 343.500 180.514 341.011 C 179.055 339.642, 175.340 334.808, 172.256 330.269 C 169.173 325.730, 166.458 322.208, 166.223 322.443 C 165.454 323.213, 169.169 333.341, 173.149 341.325 C 178.323 351.704, 186.775 364.146, 197.936 377.813 C 202.961 383.966, 206.532 389, 205.873 389 C 203.529 389, 195.403 382.992, 189.029 376.545 C 185.470 372.945, 182.200 370, 181.762 370 C 180.447 370, 185.479 379.109, 190.437 385.705 C 200.024 398.458, 214.650 407.999, 232.849 413.372 L 238.198 414.951 236.400 412.225 C 233.480 407.799, 230.263 401.679, 229.473 399.049 L 228.738 396.598 231.619 398.499 C 235.285 400.918, 241.603 404, 242.897 404 C 243.443 404, 242.805 401.546, 241.478 398.546 C 238.799 392.489, 235.492 380.168, 234.487 372.500 C 234.127 369.750, 233.586 366.623, 233.286 365.551 C 232.812 363.863, 233.157 363.954, 235.864 366.232 C 238.935 368.816, 242.757 370.576, 243.558 369.776 C 243.782 369.552, 242.434 366.473, 240.562 362.934 C 237.776 357.668, 229 336.917, 229 335.598 C 229 335.399, 231.843 337.996, 235.319 341.368 C 241.243 347.118, 249.929 353.268, 247.418 349.936 C 246.822 349.146, 244.930 346.700, 243.213 344.500 C 241.495 342.300, 237.799 336.275, 234.997 331.110 C 228.325 318.807, 224.857 314.726, 211.574 303.537 C 195.364 289.883, 193.261 287.366, 180.290 266.112 L 178.222 262.724 177.528 266.832 M 464.250 282.971 C 461.163 287.915, 452.201 292.340, 424.726 302.489 C 402.881 310.559, 389.365 316.942, 376.982 325.039 C 356.653 338.332, 348.398 346.834, 344.896 358.086 C 342.822 364.750, 340.658 384.037, 341.203 391 L 341.555 395.500 343.831 390.544 C 351.709 373.381, 361.583 361.997, 372.574 357.405 L 376.364 355.821 371.253 361.414 C 365.873 367.300, 362 375.613, 362 381.274 L 362 384.473 365.451 379.348 C 367.350 376.529, 370.448 373.268, 372.336 372.101 C 377.359 368.997, 385.953 367.491, 391.135 368.806 C 394.456 369.649, 395.928 369.572, 398.122 368.437 C 400.290 367.316, 405.802 366.995, 423.200 366.978 C 443.563 366.957, 445.715 366.790, 447.975 365.053 L 450.451 363.151 447.475 362.536 C 440.273 361.048, 433.166 358.985, 429 357.174 C 425.187 355.516, 424.805 355.110, 426.500 354.514 C 452.012 345.539, 462.045 335.559, 465.044 316.172 C 465.668 312.142, 465.996 308.663, 465.773 308.440 C 465.551 308.217, 462.425 309.598, 458.827 311.509 C 451.377 315.465, 441.153 319.423, 436 320.346 C 432.884 320.904, 433.152 320.618, 438.443 317.737 C 450.537 311.150, 459.850 300.318, 463.993 288.020 C 466.179 281.531, 466.271 279.736, 464.250 282.971 M 287.497 327.681 C 283.510 332.873, 275.012 349.894, 270.380 361.966 C 268.754 366.202, 267.365 368.655, 267.168 367.636 C 266.530 364.318, 269.115 352.588, 272.432 343.757 C 274.242 338.941, 275.424 335, 275.060 335 C 274.022 335, 265.429 349.710, 261.624 358 C 256.693 368.746, 254.959 375.986, 254.310 388.552 C 253.364 406.852, 257.492 421.932, 267.883 438.130 C 273.445 446.800, 286.720 461.291, 288.240 460.352 C 289.770 459.406, 294.620 448.196, 296.637 440.942 C 298.966 432.566, 299.254 405.636, 297.080 399.500 L 295.663 395.500 293.858 402.810 C 291.909 410.704, 287.023 420.789, 283.741 423.694 C 281.743 425.462, 281.713 425.448, 282.299 423 C 284.756 412.729, 286.703 385.911, 285.266 382.126 C 284.507 380.128, 284.158 380.909, 283.058 387.062 C 282.340 391.082, 280.964 396.650, 280.001 399.436 L 278.251 404.500 277.502 399.684 C 275.869 389.186, 280.042 364.699, 288.133 337.295 C 290.326 329.866, 291.913 323.579, 291.658 323.325 C 291.404 323.071, 289.531 325.031, 287.497 327.681 M 381.407 404.500 C 382.679 409.051, 384 417.525, 384 421.136 C 384 424.735, 384.199 425, 386.906 425 C 390.207 425, 390.207 424.873, 386.900 414.500 C 385.133 408.954, 380.082 399.760, 381.407 404.500 M 372.989 469.750 C 372.983 472.363, 372.699 476.188, 372.358 478.250 C 371.900 481.024, 372.087 482, 373.076 482 C 374.609 482, 386.135 470.484, 387.898 467.191 C 389.059 465.021, 388.994 465, 381.035 465 L 373 465 372.989 469.750 M 320.591 486.500 C 318.737 492.895, 314.121 501.717, 310.126 506.500 C 301.047 517.371, 299.788 525.857, 305.593 537.063 L 308.410 542.500 309.214 535.500 C 310.221 526.739, 313.048 517.823, 317.454 509.518 C 321.219 502.421, 322.308 497.280, 321.799 489 C 321.492 484.012, 321.380 483.779, 320.591 486.500 M 513 528.032 C 513 535.056, 515.179 539.759, 519.214 541.445 C 522.928 542.997, 530.660 543.613, 533.159 542.557 C 534.071 542.172, 538.719 537.613, 543.488 532.428 L 552.159 523 532.580 523 L 513 523 513 528.032 M 449 557.075 L 440.500 561.959 475.854 561.979 L 511.207 562 517.191 557 L 523.175 552 490.337 552.095 L 457.500 552.191 449 557.075 M 592.500 583 C 601.287 591.800, 608.702 599, 608.977 599 C 609.252 599, 602.287 591.800, 593.500 583 C 584.713 574.200, 577.298 567, 577.023 567 C 576.748 567, 583.713 574.200, 592.500 583" stroke="none" fill="#ddc8b9" fill-rule="evenodd"/><path d="M 295 51.151 C 263.613 54.057, 245.319 60.806, 221.878 78.130 C 207.256 88.936, 197.699 99.782, 188.203 116.342 C 183.490 124.562, 176.992 142.024, 175.536 150.385 L 174.859 154.270 177.264 152.385 C 204.028 131.415, 223.899 120.286, 250.276 111.497 C 295.945 96.278, 344.055 96.278, 389.724 111.497 C 439.113 127.955, 482.141 162.395, 508.315 206.420 L 512.430 213.339 514.815 207.920 C 521.332 193.111, 523.674 170.203, 520.442 152.860 C 517.375 136.397, 516.605 134.888, 506.055 124.664 C 451.095 71.397, 372.400 43.987, 295 51.151 M 219 69.537 C 198.346 77.921, 170.161 94.167, 154.250 106.859 C 149.608 110.562, 149 111.478, 148.996 114.773 C 148.988 121.745, 146.071 136.465, 142.032 149.915 C 136.124 169.584, 134.502 179.708, 134.888 194.500 L 135.044 200.500 136.985 198 C 138.053 196.625, 139.209 193.475, 139.555 191 C 140.780 182.225, 144.879 167.049, 148.511 157.838 C 161.993 123.653, 192.433 87.642, 222.898 69.839 C 230.959 65.129, 230.037 65.057, 219 69.537 M 124.852 133.750 C 114.439 144.494, 105.423 155.500, 97.894 166.657 L 92.970 173.953 98.347 185.227 C 101.304 191.427, 104.568 198.750, 105.601 201.500 L 107.478 206.500 108.189 200.863 C 109.908 187.232, 118.025 162.280, 128.461 138.550 C 131.980 130.548, 134.734 124, 134.581 124 C 134.428 124, 130.050 128.387, 124.852 133.750 M 545.702 178.750 C 552.038 204.233, 548.929 231.159, 536.871 255.228 C 531.489 265.971, 531.802 267.598, 538.068 261.462 C 550.479 249.311, 560.972 227.750, 563.475 209.261 C 564.152 204.260, 563.947 203.579, 558.944 194.261 C 554.180 185.388, 544.189 169, 543.543 169 C 543.397 169, 544.369 173.387, 545.702 178.750 M 86.153 185 C 80.163 194.432, 62.799 233.508, 64.193 234.420 C 64.362 234.530, 66.750 236.037, 69.500 237.767 C 77.613 242.872, 93.276 259.813, 100.599 271.404 C 102.194 273.930, 103.749 275.997, 104.053 275.998 C 104.356 275.999, 105.085 273.656, 105.672 270.791 C 106.564 266.436, 106.428 264.509, 104.842 259.041 C 102.046 249.400, 99.329 236.981, 94.988 214 C 92.859 202.725, 90.500 190.800, 89.746 187.500 L 88.376 181.500 86.153 185 M 61.204 243.119 C 58.392 252.703, 55.016 266.994, 55.007 269.347 C 55.003 270.362, 56.845 273.287, 59.099 275.847 C 72.420 290.967, 81.498 316.431, 89.994 362.500 C 92.225 374.600, 94.769 387.650, 95.646 391.500 C 100.042 410.784, 108.975 425.021, 123.360 435.664 C 130.575 441.002, 128.885 441.217, 118.947 436.225 C 101.852 427.637, 89.372 414.666, 79.761 395.500 C 70.715 377.460, 67.588 363.496, 67.801 342.093 C 68.022 319.975, 65.085 302.393, 57.812 282.295 C 54.204 272.322, 53.837 272.595, 52.061 286.573 C 50.137 301.729, 49.635 326.457, 50.948 341.500 C 56.556 405.775, 82.283 462.472, 126.442 507.869 C 166.726 549.283, 216.408 575.634, 273.500 585.869 C 285.065 587.942, 311.856 590.548, 314.058 589.814 C 315.990 589.170, 304.693 578.453, 296.243 572.915 C 288.633 567.927, 281.529 565.231, 268.957 562.559 C 253.826 559.343, 239.949 550.251, 220.973 531.121 C 211.274 521.343, 199.425 507.708, 196.304 502.734 C 195.862 502.030, 192.650 499.361, 189.167 496.805 C 165.746 479.613, 145.065 456.452, 129.963 430.500 C 126.762 425, 122.038 417.195, 119.464 413.155 C 106.652 393.049, 98.020 366.884, 94.910 338.723 C 93.774 328.434, 94.148 324.772, 96.007 328.008 C 99.655 334.362, 99.935 333.983, 99.968 322.639 L 100 311.778 95.113 303.639 C 87.828 291.505, 84.804 284.999, 79.013 269 C 73.050 252.525, 68.210 241.597, 65.336 238.119 L 63.369 235.738 61.204 243.119 M 576.089 249.750 C 574.032 262.005, 570.351 273.724, 565.333 284 C 561.317 292.223, 559.298 294.911, 550.311 304 C 541.429 312.983, 539.971 314.914, 540.215 317.364 L 540.500 320.229 548.387 314.892 C 562.779 305.153, 577.036 290.058, 581.452 279.885 C 583.864 274.329, 583.280 279.342, 580.034 292.069 C 573.547 317.501, 564.026 337.130, 553.347 347.088 C 550.373 349.862, 537.059 360.360, 536.367 360.477 C 536.294 360.490, 535.920 361.962, 535.537 363.750 L 534.841 367 539.029 367 C 542.539 367, 544.214 366.206, 549.388 362.089 C 552.782 359.388, 557.720 354.868, 560.361 352.045 C 565.586 346.459, 565.571 346.291, 561.013 359.250 L 558.287 367 562.683 367 C 570.551 367, 578.741 373.080, 580.531 380.250 C 580.908 381.762, 581.569 383, 582 383 C 582.840 383, 586.380 365.311, 588.004 353 C 590.879 331.203, 590.217 299.191, 586.423 276.500 C 584.406 264.438, 578.996 242, 578.104 242 C 577.711 242, 576.805 245.488, 576.089 249.750 M 384.762 368.707 C 386.006 368.946, 387.806 368.937, 388.762 368.687 C 389.718 368.437, 388.700 368.241, 386.500 368.252 C 384.300 368.263, 383.518 368.468, 384.762 368.707 M 284.546 376.855 C 284.222 377.875, 284.388 379.788, 284.915 381.105 C 285.758 383.211, 285.881 382.987, 285.937 379.250 C 286.004 374.711, 285.501 373.845, 284.546 376.855 M 277.336 393 C 277.336 397.125, 277.513 398.813, 277.728 396.750 C 277.944 394.688, 277.944 391.313, 277.728 389.250 C 277.513 387.188, 277.336 388.875, 277.336 393 M 285.252 399.500 C 285.263 401.700, 285.468 402.482, 285.707 401.238 C 285.946 399.994, 285.937 398.194, 285.687 397.238 C 285.437 396.282, 285.241 397.300, 285.252 399.500 M 299.286 418.500 C 299.294 421.250, 299.488 422.256, 299.718 420.736 C 299.947 419.216, 299.941 416.966, 299.704 415.736 C 299.467 414.506, 299.279 415.750, 299.286 418.500 M 106.151 453.075 C 113.280 461.173, 121.269 472.029, 125.979 480.022 C 134.983 495.302, 155.168 510.245, 177.766 518.359 C 183.634 520.466, 202.575 525, 205.511 525 C 206.455 525, 201.524 519.378, 190.602 508 C 185.585 502.775, 178.111 494.737, 173.991 490.138 C 169.871 485.539, 163.125 479.209, 159 476.071 C 140.110 461.700, 111.650 447, 102.720 447 C 101.206 447, 101.929 448.280, 106.151 453.075 M 321.660 480.750 C 321.409 481.163, 321.548 484.200, 321.970 487.500 L 322.738 493.500 322.869 486.750 C 322.993 480.371, 322.720 479.014, 321.660 480.750 M 430.675 525.107 C 428.571 526.217, 415.971 531.102, 402.675 535.962 C 375.077 546.050, 373.713 546.605, 361.543 552.689 C 340.213 563.352, 330.446 572.938, 328.096 585.514 C 327.318 589.682, 327.408 590, 329.379 589.999 C 334.197 589.997, 354.178 587.895, 363.500 586.409 L 373.500 584.815 383.500 574.947 C 389 569.520, 395.173 564.387, 397.218 563.540 C 400.134 562.332, 405.167 562, 420.564 562 L 440.192 562 448.846 557.250 L 457.500 552.500 446.250 552.217 L 435 551.934 435 549.402 C 435 544.791, 436.698 543, 441.067 543 C 450.477 543, 455 538.309, 455 528.550 L 455 523 444.750 523.044 C 436.458 523.080, 433.769 523.474, 430.675 525.107 M 270.576 539.196 C 274.277 546.565, 282.412 557.366, 286.992 560.994 C 291.490 564.556, 301.834 569.499, 302.790 568.543 C 304.199 567.135, 297.517 556.700, 292.618 552.659 C 286.991 548.016, 279.287 540.420, 277 537.259 C 276.162 536.100, 273.826 534.900, 271.706 534.539 L 267.912 533.893 270.576 539.196" stroke="none" fill="#cdb4a1" fill-rule="evenodd"/><path d="M 297.051 101.148 C 264.049 104.594, 227.552 117.606, 200 135.748 C 188.074 143.601, 175.412 153.484, 174.615 155.562 C 174.320 156.330, 173.542 162.825, 172.888 169.995 C 171.985 179.877, 171.971 186.012, 172.831 195.355 C 174.404 212.459, 176.079 223.069, 177.106 222.434 C 177.583 222.140, 180.316 217.883, 183.179 212.974 C 186.042 208.066, 188.483 204.152, 188.605 204.275 C 188.727 204.399, 188.489 206.339, 188.077 208.588 L 187.328 212.675 199.414 200.588 C 214.020 185.980, 226.209 177.121, 243.500 168.541 C 259.417 160.643, 270.447 156.766, 286.898 153.286 C 298.202 150.894, 301.611 150.620, 320 150.620 C 338.389 150.620, 341.798 150.894, 353.102 153.286 C 369.553 156.766, 380.583 160.643, 396.500 168.541 C 413.577 177.014, 425.911 185.937, 439.988 200.002 C 453.227 213.230, 461.914 225.019, 470.655 241.618 L 476.811 253.307 479.628 247.903 L 482.444 242.500 482.972 246.283 C 483.262 248.364, 483.890 250.106, 484.368 250.154 C 487.141 250.436, 500.507 234.467, 508.171 221.716 L 512.882 213.877 508.404 206.500 C 472.180 146.835, 410.675 108.056, 341.144 101.044 C 329.137 99.834, 309.190 99.880, 297.051 101.148 M 136.939 198.114 C 135.735 200.364, 136.374 207.425, 138.014 210 C 138.669 211.028, 138.974 209.061, 138.985 203.750 C 138.993 199.488, 138.791 196, 138.535 196 C 138.280 196, 137.561 196.951, 136.939 198.114 M 105.256 272.101 C 104.250 277.193, 104.257 277.216, 109.193 284.596 C 114.255 292.165, 123.921 303.413, 124.696 302.637 C 124.934 302.399, 122.663 297.935, 119.650 292.716 C 114.215 283.301, 108 270.160, 108 268.082 C 108 267.487, 107.610 267, 107.133 267 C 106.655 267, 105.811 269.296, 105.256 272.101 M 100 322.805 L 100 333.784 110.806 346.142 C 127.208 364.900, 146.690 381.816, 160.180 389.013 L 165.861 392.043 162.543 383.771 C 160.719 379.222, 158.450 373.025, 157.503 370 C 155.958 365.069, 155.202 364.145, 150.205 361.075 C 135.347 351.944, 117.226 335.059, 105.916 319.805 L 100 311.827 100 322.805 M 538.513 314.980 C 538.179 315.519, 532.415 319.620, 525.704 324.094 C 518.992 328.568, 513.275 332.458, 513 332.739 C 511.587 334.179, 518.744 331.254, 528.750 326.303 C 539.754 320.857, 540 320.662, 540 317.368 C 540 313.920, 539.582 313.249, 538.513 314.980 M 531 364.106 L 526.500 366.962 530.642 366.981 C 534.282 366.998, 534.863 366.683, 535.440 364.382 C 535.802 362.942, 535.963 361.648, 535.799 361.507 C 535.634 361.365, 533.475 362.535, 531 364.106 M 127.463 426.500 C 143.403 454.787, 164.465 478.530, 191.360 498.534 L 195.220 501.405 188.601 491.303 C 184.960 485.746, 181.305 479.582, 180.479 477.604 L 178.977 474.008 185.738 476.622 C 196.769 480.884, 203.941 482.997, 214.030 484.956 C 231.086 488.266, 248.632 496.685, 254.428 504.340 C 255.744 506.078, 259.112 513.103, 261.913 519.952 C 264.713 526.801, 267.341 532.737, 267.752 533.145 C 268.163 533.552, 270.365 534.303, 272.645 534.813 L 276.789 535.740 275.298 532.170 C 273.540 527.964, 273.365 516.072, 274.972 510.103 C 276.015 506.232, 275.885 505.690, 272.860 501.240 C 268.089 494.221, 257.648 484.474, 250.090 479.984 C 240.846 474.492, 232.139 471.668, 211.868 467.588 C 175.805 460.329, 152.534 449.182, 133.037 429.830 L 124.646 421.500 127.463 426.500" stroke="none" fill="#b5947b" fill-rule="evenodd"/><path d="M 277.417 50.866 C 277.915 51.671, 283 51.232, 283 50.383 C 283 50.173, 281.623 50, 279.941 50 C 278.259 50, 277.123 50.390, 277.417 50.866 M 186.946 98.750 L 183.500 102.500 187.250 99.054 C 189.313 97.158, 191 95.471, 191 95.304 C 191 94.540, 190.154 95.260, 186.946 98.750 M 300.204 151.036 C 259.160 156.210, 219.826 176.695, 193.205 206.760 C 186.129 214.751, 185.533 216.708, 185.512 232 C 185.492 246.615, 188.600 261.549, 192.604 266.079 C 193.372 266.947, 194 268.185, 194 268.829 C 194 269.473, 194.450 270, 195 270 C 195.550 270, 196 270.573, 196 271.274 C 196 271.975, 198.755 275.013, 202.123 278.024 C 205.490 281.036, 209.895 285.075, 211.911 287 C 213.926 288.925, 218.428 292.975, 221.915 296 C 229.814 302.854, 251.979 324.954, 254 327.991 C 254.825 329.231, 256.063 330.833, 256.750 331.551 C 257.438 332.269, 258.010 333.227, 258.022 333.679 C 258.034 334.130, 258.880 335.587, 259.902 336.916 L 261.759 339.332 265.627 333.416 C 267.754 330.162, 269.744 327.275, 270.050 327 C 270.356 326.725, 271.932 324.725, 273.553 322.555 C 275.174 320.386, 278.413 316.841, 280.750 314.678 C 283.087 312.515, 285 310.165, 285 309.456 C 285 308.747, 285.360 308.017, 285.800 307.833 C 287.160 307.266, 292.706 294.721, 293.462 290.500 C 293.856 288.300, 294.570 286.026, 295.048 285.448 C 295.581 284.802, 294.351 282.098, 291.862 278.448 C 285.850 269.629, 282.205 261.924, 277.952 249.046 L 274.139 237.500 270.168 237.680 C 267.984 237.778, 264.309 238.822, 262.001 239.999 C 259.694 241.176, 257.592 241.925, 257.329 241.663 C 256.527 240.860, 259.659 235.654, 262.661 232.803 C 266.666 228.998, 272.058 227, 278.318 227 C 282.649 227, 284.469 227.557, 287.636 229.851 C 292.299 233.229, 296.032 237.506, 299.132 243.020 C 301.063 246.457, 301.829 247.007, 304.445 246.831 C 308.472 246.559, 317.554 250.952, 322.250 255.442 C 324.313 257.413, 326 259.257, 326 259.538 C 326 259.818, 327.575 262.338, 329.500 265.136 C 331.425 267.935, 333 270.704, 333 271.290 C 333 272.557, 338.526 288.077, 340.673 292.839 C 343.726 299.611, 348.562 301.638, 355.435 299.025 C 358.870 297.719, 358.673 298.382, 354.387 302.544 C 348.651 308.114, 343.225 310.104, 334.333 309.898 C 327.378 309.737, 326.560 309.928, 324.882 312.111 C 323.871 313.425, 323.034 315.063, 323.022 315.750 C 323.010 316.438, 322.626 317, 322.168 317 C 321.389 317, 314.960 329.162, 311.596 337 C 309.277 342.403, 310.123 352.545, 313.381 358.380 C 316.385 363.760, 317.052 364.646, 322.310 370.232 C 324.470 372.527, 326.484 373.894, 326.960 373.390 C 327.423 372.900, 328.034 369.800, 328.320 366.500 C 328.605 363.200, 329.314 359.262, 329.895 357.750 C 330.475 356.238, 330.682 355, 330.353 355 C 330.024 355, 330.222 354.438, 330.793 353.750 C 331.363 353.063, 331.901 352.050, 331.988 351.500 C 332.699 346.998, 342.605 331.957, 345.809 330.513 C 347.014 329.970, 348 329.182, 348 328.763 C 348 328.343, 348.459 328, 349.020 328 C 349.581 328, 351.943 326.797, 354.270 325.326 C 360.520 321.376, 403.795 300, 405.542 300 C 406.257 300, 428.892 288.072, 439.920 281.885 C 446.822 278.012, 457.398 270.889, 457.833 269.819 C 458.017 269.369, 458.654 269, 459.249 269 C 460.456 269, 460.764 268.738, 470.165 259.730 L 476.830 253.343 470.665 241.636 C 461.914 225.019, 453.231 213.234, 439.988 200.002 C 425.911 185.937, 413.577 177.014, 396.500 168.541 C 371.239 156.007, 351.930 151.174, 324.500 150.521 C 315.150 150.298, 304.217 150.530, 300.204 151.036 M 178.921 234.751 C 179.399 238.202, 179.468 238.272, 179.798 235.628 C 179.995 234.049, 179.762 232.362, 179.279 231.879 C 178.776 231.376, 178.623 232.601, 178.921 234.751 M 207 294.500 C 208.866 296.425, 210.617 298, 210.892 298 C 211.167 298, 209.866 296.425, 208 294.500 C 206.134 292.575, 204.383 291, 204.108 291 C 203.833 291, 205.134 292.575, 207 294.500 M 565.453 301.250 L 561.500 305.500 565.750 301.547 C 569.702 297.871, 570.460 297, 569.703 297 C 569.540 297, 567.627 298.913, 565.453 301.250 M 236.500 319 C 238.648 321.200, 240.631 323, 240.906 323 C 241.181 323, 239.648 321.200, 237.500 319 C 235.352 316.800, 233.369 315, 233.094 315 C 232.819 315, 234.352 316.800, 236.500 319 M 126.500 332 C 130.874 336.400, 134.678 340, 134.953 340 C 135.228 340, 131.874 336.400, 127.500 332 C 123.126 327.600, 119.322 324, 119.047 324 C 118.772 324, 122.126 327.600, 126.500 332 M 121.500 338 C 124.209 340.750, 126.650 343, 126.925 343 C 127.200 343, 125.209 340.750, 122.500 338 C 119.791 335.250, 117.350 333, 117.075 333 C 116.800 333, 118.791 335.250, 121.500 338 M 67.252 346.500 C 67.263 348.700, 67.468 349.482, 67.707 348.238 C 67.946 346.994, 67.937 345.194, 67.687 344.238 C 67.437 343.282, 67.241 344.300, 67.252 346.500 M 558.958 353.749 C 554.655 358.334, 554.641 358.367, 558.563 354.729 C 560.798 352.656, 562.860 351.193, 563.146 351.480 C 563.433 351.766, 563.667 351.325, 563.667 350.500 C 563.667 349.675, 563.610 349, 563.542 349 C 563.473 349, 561.410 351.137, 558.958 353.749 M 156.545 367.250 C 158.365 373.272, 164.364 388.768, 165.675 390.834 C 167.062 393.020, 172.095 395.748, 176.199 396.538 C 177.194 396.730, 178.353 397.100, 178.775 397.361 C 179.197 397.622, 181.529 398.131, 183.957 398.494 C 188.720 399.204, 188.723 399.018, 184.030 393.798 C 181.459 390.938, 180.531 389.657, 178.021 385.500 C 176.693 383.300, 175.305 381.275, 174.938 381 C 174.570 380.725, 173.971 379.600, 173.607 378.500 C 173.242 377.400, 172.169 375.600, 171.222 374.500 C 169.546 372.554, 157.866 365, 156.532 365 C 156.165 365, 156.171 366.012, 156.545 367.250 M 98.500 422 C 100.648 424.200, 102.631 426, 102.906 426 C 103.181 426, 101.648 424.200, 99.500 422 C 97.352 419.800, 95.369 418, 95.094 418 C 94.819 418, 96.352 419.800, 98.500 422 M 215.500 505 C 218.209 507.750, 220.650 510, 220.925 510 C 221.200 510, 219.209 507.750, 216.500 505 C 213.791 502.250, 211.350 500, 211.075 500 C 210.800 500, 212.791 502.250, 215.500 505 M 192.958 511.250 C 195.410 513.862, 197.548 516, 197.708 516 C 198.459 516, 197.665 515.102, 193.250 510.958 L 188.500 506.500 192.958 511.250 M 220 530.500 C 223.543 534.075, 226.667 537, 226.942 537 C 227.217 537, 224.543 534.075, 221 530.500 C 217.457 526.925, 214.333 524, 214.058 524 C 213.783 524, 216.457 526.925, 220 530.500 M 354.971 534.750 L 348.500 541.500 355.250 535.029 C 358.962 531.470, 362 528.432, 362 528.279 C 362 527.543, 360.982 528.480, 354.971 534.750 M 239 535.500 C 240.866 537.425, 242.617 539, 242.892 539 C 243.167 539, 241.866 537.425, 240 535.500 C 238.134 533.575, 236.383 532, 236.108 532 C 235.833 532, 237.134 533.575, 239 535.500 M 424.250 620.750 C 457.112 620.896, 510.887 620.896, 543.750 620.750 C 576.612 620.604, 549.725 620.484, 484 620.484 C 418.275 620.484, 391.387 620.604, 424.250 620.750" stroke="none" fill="#a57b5a" fill-rule="evenodd"/><path d="M 409.789 582.741 C 413.248 582.937, 418.648 582.936, 421.789 582.738 C 424.930 582.540, 422.100 582.380, 415.500 582.382 C 408.900 582.384, 406.330 582.546, 409.789 582.741 M 446.250 582.728 C 448.313 582.944, 451.688 582.944, 453.750 582.728 C 455.813 582.513, 454.125 582.336, 450 582.336 C 445.875 582.336, 444.188 582.513, 446.250 582.728 M 475.250 582.728 C 477.313 582.944, 480.688 582.944, 482.750 582.728 C 484.813 582.513, 483.125 582.336, 479 582.336 C 474.875 582.336, 473.188 582.513, 475.250 582.728 M 504.728 582.722 C 506.503 582.943, 509.653 582.946, 511.728 582.730 C 513.802 582.513, 512.350 582.333, 508.500 582.328 C 504.650 582.324, 502.952 582.501, 504.728 582.722 M 539.299 582.745 C 544.139 582.929, 551.789 582.928, 556.299 582.743 C 560.810 582.558, 556.850 582.408, 547.500 582.409 C 538.150 582.410, 534.460 582.562, 539.299 582.745" stroke="none" fill="#242424" fill-rule="evenodd"/><path d="" stroke="none" fill="#b1a27d" fill-rule="evenodd"/></svg>