<svg xmlns="http://www.w3.org/2000/svg" width="640" height="640" viewBox="0 0 640 640" version="1.1"><path d="M 322.364 270.493 C 322.018 271.396, 322.214 272.614, 322.800 273.200 C 324.324 274.724, 327.210 273.331, 326.812 271.265 C 326.369 268.963, 323.165 268.407, 322.364 270.493" stroke="none" fill="#f4eeda" fill-rule="evenodd"/><path d="M 259.500 2.445 C 241.874 5.550, 231.545 8.128, 214.807 13.598 C 102.576 50.278, 21.041 145.542, 2.001 262.238 C 0.209 273.221, 0 279.248, 0 320 C 0 360.752, 0.209 366.779, 2.001 377.762 C 23.878 511.842, 128.158 616.122, 262.238 637.999 C 273.221 639.791, 279.248 640, 320 640 C 360.752 640, 366.779 639.791, 377.762 637.999 C 494.583 618.938, 589.714 537.444, 626.490 424.926 C 631.616 409.241, 636.181 390.394, 638.097 377 C 638.766 372.325, 639.693 368.072, 640.157 367.550 C 641.242 366.328, 641.269 270.716, 640.184 271.387 C 639.735 271.664, 638.797 267.862, 638.100 262.937 C 636.198 249.498, 631.756 231.188, 626.485 215.062 C 589.717 102.559, 494.577 21.061, 377.762 2.001 C 366.692 0.195, 360.981 0.008, 319 0.077 C 275.179 0.150, 271.751 0.286, 259.500 2.445 M 271.500 14.445 C 253.874 17.550, 243.545 20.128, 226.807 25.598 C 114.576 62.278, 33.041 157.542, 14.001 274.238 C 12.284 284.762, 12 291.249, 12 320 C 12 348.751, 12.284 355.238, 14.001 365.762 C 35.878 499.842, 140.158 604.122, 274.238 625.999 C 284.762 627.716, 291.249 628, 320 628 C 348.751 628, 355.238 627.716, 365.762 625.999 C 499.842 604.122, 604.122 499.842, 625.999 365.762 C 627.716 355.238, 628 348.751, 628 320 C 628 291.249, 627.716 284.762, 625.999 274.238 C 604.122 140.158, 499.842 35.878, 365.762 14.001 C 355.101 12.262, 348.996 12.010, 319 12.077 C 287.702 12.147, 283.294 12.367, 271.500 14.445 M 267.105 52.546 C 258.570 54.398, 249.315 57.508, 239 61.989 C 209.991 74.594, 185.608 96.472, 163.761 129.500 C 148.624 152.384, 139.156 180.940, 138.918 204.426 C 138.839 212.320, 138.805 212.427, 137.405 209.224 C 136.617 207.422, 135.465 201.572, 134.844 196.224 C 133.425 183.995, 134.973 173.252, 141.359 151 C 146.860 131.835, 147.725 127.686, 148.577 116.400 C 149.694 101.608, 145.501 85.254, 139.141 79.595 C 136.437 77.189, 136.450 77.346, 139.666 85.631 C 141.723 90.928, 142.348 94.330, 142.399 100.500 C 142.473 109.341, 143.195 107.259, 129.736 137.006 C 118.740 161.306, 110.285 186.881, 108.456 201.371 C 107.731 207.113, 107.270 206.751, 103.527 197.500 C 96.271 179.567, 87.740 165.799, 80.843 160.888 L 77.546 158.540 80.808 163.083 C 85.447 169.543, 88.497 179.168, 92.558 200.170 C 101.932 248.644, 104.251 258.257, 110.121 273 C 112.862 279.883, 120.782 294.640, 126.158 302.883 C 128.343 306.232, 128.344 306.254, 126.270 305.145 C 122.809 303.292, 115.311 294.187, 107.213 282 C 91.199 257.902, 78.845 243.721, 68.167 237.183 L 62.835 233.917 65.349 237.214 C 68.653 241.545, 72.583 250.422, 79.011 268.072 C 85.696 286.430, 90.858 296.706, 101.063 311.972 C 116.417 334.942, 138.123 354.666, 163.232 368.465 C 169.313 371.806, 170.448 372.956, 174.950 380.332 C 177.691 384.824, 181.738 390.750, 183.943 393.500 C 186.148 396.250, 187.500 398.654, 186.947 398.843 C 184.908 399.539, 175.266 396.657, 167.296 392.969 C 162.784 390.881, 154.920 386.321, 149.821 382.836 C 136.010 373.396, 112.175 349.717, 97.236 330.593 C 95.991 328.999, 94.783 327.884, 94.551 328.116 C 93.907 328.760, 96.630 350.486, 98.485 359.500 C 99.390 363.900, 101.865 372.726, 103.985 379.112 C 120.914 430.120, 154.033 456.538, 215.500 468.068 C 234.714 471.671, 243.383 474.786, 253.675 481.784 C 260.988 486.756, 270.396 496.161, 273.742 501.844 C 276.121 505.884, 276.220 506.537, 275.150 511.170 C 271.648 526.340, 276.465 540.448, 287.778 548.162 C 294.311 552.617, 298.813 557.611, 301.604 563.500 C 304.538 569.692, 303.437 570.262, 295.532 566.643 C 282.098 560.493, 272.693 547.459, 261.080 518.899 C 256.696 508.117, 255.373 505.879, 250.938 501.739 C 242.190 493.575, 230.836 488.951, 206 483.439 C 201.875 482.523, 194.472 480.265, 189.549 478.421 C 184.627 476.577, 180.412 475.254, 180.184 475.482 C 179.473 476.194, 186.526 488.079, 193.523 497.961 C 212.204 524.343, 238.940 549.929, 256.329 558.067 C 259.756 559.670, 266.597 561.847, 271.530 562.903 C 288.633 566.565, 299.828 572.774, 311.352 584.990 C 317.588 591.601, 318.215 592, 322.353 592 L 326.742 592 327.425 586.855 C 329.930 567.967, 348.367 555.296, 401.389 536.018 C 429.191 525.910, 436.786 522.287, 441.109 517.071 C 448.812 507.775, 452.665 492.716, 451.612 476.018 C 451.247 470.233, 450.688 464.065, 450.370 462.311 C 449.791 459.122, 449.793 459.120, 460.645 453.696 C 466.615 450.712, 479.294 444.802, 488.820 440.563 C 498.346 436.323, 508.847 431.269, 512.155 429.330 C 520.465 424.460, 530.517 414.695, 537.947 404.275 C 545.101 394.243, 556.433 371.744, 561.003 358.500 L 564.108 349.500 559.804 353.617 C 551.170 361.875, 539.446 370.426, 523.902 379.805 C 520.408 381.913, 463.192 409, 462.233 409 C 461.970 409, 462.360 408.272, 463.098 407.381 C 465.055 405.024, 476.004 397.806, 497 385.033 C 533.649 362.738, 550.032 351.011, 558.034 341.344 C 562.627 335.797, 569.616 322.732, 573.466 312.500 C 576.259 305.074, 582.002 284.522, 581.989 282 C 581.985 281.175, 580.265 283.200, 578.167 286.500 C 567.608 303.111, 544.908 320.270, 518.466 331.630 C 512.630 334.137, 507.656 335.989, 507.412 335.746 C 507.169 335.502, 510.541 333.194, 514.906 330.617 C 528.839 322.389, 540.222 313.761, 550.023 304 C 557.797 296.257, 560.416 292.835, 564.177 285.500 C 573.766 266.802, 578.219 246.004, 578.310 219.500 C 578.354 206.753, 577.927 200.514, 576.605 194.561 C 574.384 184.565, 569.973 172.404, 566.538 166.807 L 563.894 162.500 564.672 170.500 C 567.230 196.816, 563.459 221.358, 553.982 240.067 C 548.505 250.879, 534.463 268, 531.072 268 C 530.515 268, 532.477 263.163, 535.433 257.250 C 550.970 226.171, 552.716 199.971, 541.548 165.500 C 537.523 153.078, 526.865 132.553, 518.959 122 C 512.188 112.962, 500.024 99.643, 499.249 100.418 C 499.049 100.618, 500.426 103.193, 502.308 106.141 C 515.291 126.465, 522 148.399, 522 170.522 C 522 192.706, 516.691 209.865, 503.921 228.957 C 497.425 238.668, 485.292 252.299, 483.906 251.442 C 483.408 251.134, 483 249.559, 483 247.941 C 483 243.819, 481.883 244.271, 479.099 249.520 C 471.958 262.980, 441.331 283.431, 398.951 303.038 C 353.545 324.046, 343.718 330.268, 335.821 343.014 C 332.821 347.856, 328.998 360.171, 328.358 367.054 C 328.003 370.874, 327.238 374, 326.657 374 C 324.856 374, 316.607 364.531, 313.607 359.019 C 311.671 355.463, 310.592 351.785, 310.256 347.604 C 309.828 342.271, 310.195 340.393, 312.960 333.752 C 314.719 329.526, 318.494 322.341, 321.350 317.784 L 326.542 309.500 333.616 309.844 C 342.048 310.255, 348.860 307.803, 353.988 302.513 L 357.239 299.158 353.180 299.703 C 344.243 300.901, 342.390 298.893, 336.187 281.283 C 329.906 263.450, 323.073 253.836, 313.500 249.358 C 307.301 246.459, 302.436 246.162, 303.518 248.750 C 307.538 258.357, 317.185 285.306, 317.654 288.238 C 318.644 294.429, 315.121 296.665, 309.200 293.604 L 306.500 292.207 306.500 304.854 C 306.500 317.307, 306.446 317.607, 303 324.500 C 299.749 331.003, 299.505 332.139, 299.575 340.500 C 299.660 350.710, 301.808 357.589, 307.491 365.851 C 309.340 368.538, 311.304 372.483, 311.856 374.618 C 314.032 383.028, 316.156 399.999, 316.222 409.500 C 316.280 417.893, 315.888 420.545, 313.780 426 C 310.825 433.651, 292.454 470.602, 291.229 471.358 C 290.766 471.645, 287.943 468.644, 284.957 464.689 C 281.970 460.735, 273.624 451.425, 266.411 444 C 259.197 436.575, 252.492 428.940, 251.510 427.034 L 249.725 423.567 246.870 426.987 L 244.015 430.407 240.757 427.348 C 235.916 422.803, 229.988 419.060, 215 411.087 C 203.787 405.122, 200.392 402.749, 194.957 397.080 C 185.141 386.840, 167.011 358.639, 171.303 360.286 C 172.557 360.767, 171.992 358.951, 169.093 353.185 C 165.129 345.301, 161.012 332.920, 159.057 323 C 157.345 314.319, 156.286 304, 157.106 304 C 157.518 304, 159.061 305.463, 160.534 307.250 C 162.217 309.292, 162.948 309.757, 162.500 308.500 C 159.956 301.365, 161.263 271.052, 164.435 263.604 L 165.757 260.500 167.808 265 L 169.859 269.500 169.947 264.500 C 170.119 254.697, 176.923 230.216, 179.100 231.562 C 179.595 231.868, 180 234.707, 180 237.871 C 180 244.497, 182.920 256.502, 186.504 264.604 C 193.040 279.383, 205.858 294.204, 224.197 308.187 C 236.632 317.669, 242.592 323.918, 250.723 336 C 255.494 343.089, 260.608 348.847, 261.311 347.921 C 261.486 347.689, 264.146 343.675, 267.222 339 C 270.298 334.325, 277.094 325.181, 282.324 318.679 C 291.818 306.877, 295.836 300.037, 298.004 291.987 C 298.954 288.458, 298.897 287.468, 297.672 286.243 C 295.549 284.120, 294.325 285.347, 293.575 290.351 C 292.474 297.693, 286.644 308.394, 279.739 315.746 C 276.250 319.461, 270.772 326.243, 267.566 330.819 C 264.360 335.394, 261.424 338.769, 261.042 338.319 C 260.659 337.868, 258.273 334.536, 255.739 330.913 C 249.788 322.405, 237.924 310.461, 215.317 290.219 C 204.305 280.359, 195.989 272.077, 194.231 269.219 C 186.370 256.438, 183.491 238.359, 186.216 218.883 C 187.092 212.622, 187.662 207.348, 187.482 207.161 C 187.303 206.975, 185.059 210.459, 182.495 214.904 C 179.931 219.348, 177.467 223.211, 177.019 223.488 C 174.771 224.878, 171.615 193.854, 172.291 177 C 174.273 127.567, 194.492 93.066, 236 68.291 C 245.446 62.653, 256.055 58.027, 268 54.336 C 278.819 50.993, 278.373 50.102, 267.105 52.546 M 174.130 124.343 C 169.451 129.981, 160.346 155.768, 157.905 170.294 C 157.193 174.532, 156.248 178, 155.805 178 C 155.362 178, 154.955 175.412, 154.900 172.250 C 154.845 169.088, 154.467 165.375, 154.060 164 C 153.396 161.759, 153.145 162.069, 151.639 167 C 148.471 177.373, 149.640 195.329, 154.173 205.904 C 156.470 211.262, 164.682 223, 166.134 223 C 166.831 223, 166.944 217.235, 166.481 205.250 C 165.395 177.139, 167.933 149.814, 173.378 131.018 C 174.655 126.608, 175.598 123, 175.472 123 C 175.347 123, 174.743 123.604, 174.130 124.343 M 130.429 154.250 C 116.120 171.170, 115.477 205.883, 128.940 234.613 C 131.183 239.399, 133.230 243.103, 133.489 242.845 C 133.748 242.586, 132.856 236.731, 131.508 229.835 C 125.510 199.166, 126.060 173.758, 133.111 155.750 C 135.279 150.212, 134.305 149.667, 130.429 154.250 M 529.100 169.619 C 528.823 200.321, 519.380 225.417, 498.112 251.978 C 494.818 256.091, 492.284 259.618, 492.481 259.814 C 493.299 260.633, 510.518 251.762, 517.559 246.894 C 530.331 238.065, 538.153 227.623, 541.547 214.869 C 543.287 208.334, 543.305 194.951, 541.582 189.500 L 540.318 185.500 539.530 191.500 C 538.459 199.662, 535.423 209.332, 531.753 216.268 C 530.075 219.440, 528.579 221.913, 528.429 221.762 C 528.278 221.611, 528.902 218.566, 529.816 214.994 C 531.117 209.904, 531.462 203.960, 531.412 187.500 C 531.376 175.925, 530.866 164.705, 530.274 162.500 C 529.324 158.959, 529.189 159.777, 529.100 169.619 M 569 205.265 C 569 211.447, 565.868 227.381, 562.876 236.420 C 554.929 260.433, 542.098 276.860, 520.832 290.250 C 510.723 296.615, 510.930 297.340, 521.647 293.111 C 552.669 280.869, 571 250.738, 571 211.987 C 571 207.109, 570.550 202.840, 570 202.500 C 569.409 202.135, 569 203.264, 569 205.265 M 113.375 221.250 C 113.748 226.887, 114.905 235.549, 115.946 240.498 C 116.987 245.446, 117.683 249.651, 117.492 249.841 C 116.713 250.620, 110.822 238.932, 107.995 231 C 106.329 226.325, 104.554 221.600, 104.051 220.500 C 103.216 218.677, 103.129 218.731, 103.068 221.119 C 102.965 225.108, 105.838 240.680, 108.059 248.171 C 111.484 259.719, 124.497 289.836, 125.590 288.743 C 125.974 288.359, 121.031 269.971, 118.455 262.198 C 117.645 259.755, 119.887 262.045, 126.609 270.528 C 130.304 275.191, 133.466 278.867, 133.635 278.698 C 133.804 278.529, 132.221 274.365, 130.116 269.445 C 125.281 258.145, 124.413 254.837, 126.488 255.634 C 128.413 256.372, 128.521 256.868, 124.688 247.418 C 122.885 242.973, 119.855 232.963, 117.955 225.173 C 116.055 217.383, 114.094 211.007, 113.598 211.004 C 113.077 211.002, 112.982 215.324, 113.375 221.250 M 79.657 254.750 C 81.058 257.913, 84.447 266.125, 87.188 273 C 89.928 279.875, 93.815 288.650, 95.825 292.500 C 101.234 302.861, 112.913 317.843, 125.427 330.472 C 137.004 342.155, 149.758 353.575, 150.454 352.880 C 150.677 352.656, 147.223 348.429, 142.778 343.487 C 122.075 320.465, 107.569 300.286, 98.888 282.431 C 92.940 270.197, 79.708 249, 78.018 249 C 77.519 249, 78.256 251.588, 79.657 254.750 M 469.304 269.633 C 459.143 279.839, 447.417 286.406, 416 299.484 C 379.951 314.492, 362.598 324.327, 349.909 336.946 C 344.989 341.838, 342.771 344.964, 341.165 349.271 C 337.957 357.871, 335.063 373.931, 334.210 387.863 L 333.454 400.225 339.801 410.363 C 356.520 437.062, 364.112 460.210, 365.675 489.250 C 366.023 495.712, 366.515 501, 366.770 501 C 368.121 501, 377.282 493.380, 382.640 487.798 C 393.199 476.799, 400.586 463.447, 404.659 448 C 405.867 443.415, 406.376 437.523, 406.383 428 C 406.395 412.999, 404.660 402.663, 399.960 389.750 C 398.409 385.488, 397.514 382, 397.971 382 C 399.187 382, 411.024 394.944, 422.500 408.821 C 428 415.472, 433.150 420.933, 433.943 420.957 C 436.485 421.033, 445.657 410.505, 448.816 403.885 C 450.498 400.361, 453.290 393.658, 455.022 388.989 C 458.347 380.019, 464.213 358.880, 463.558 358.225 C 463.345 358.012, 462.262 358.324, 461.151 358.919 C 457.153 361.059, 457.108 359.900, 460.959 353.942 C 467.554 343.739, 472.344 326.226, 473.662 307.500 L 474.296 298.500 472.149 300.404 L 470.002 302.309 472.037 296.404 C 474.229 290.044, 475.936 273.969, 475.047 268.053 L 474.500 264.415 469.304 269.633 M 321.410 269.375 C 320.211 272.498, 321.424 274.500, 324.514 274.500 C 327.165 274.500, 327.500 274.164, 327.500 271.500 C 327.500 268.969, 327.069 268.450, 324.744 268.183 C 322.986 267.981, 321.779 268.412, 321.410 269.375 M 0.463 320 C 0.463 346.675, 0.592 357.587, 0.749 344.250 C 0.907 330.913, 0.907 309.087, 0.749 295.750 C 0.592 282.413, 0.463 293.325, 0.463 320 M 56.023 276.554 C 63.775 294.639, 68 317.095, 68 340.217 C 68 358.281, 69.165 366.501, 73.637 380 C 76.481 388.585, 82.537 401.013, 87.123 407.679 C 96.443 421.225, 113.435 435.046, 125 438.487 C 126.926 439.060, 126.582 438.556, 123.500 436.289 C 118.045 432.276, 110.552 424.667, 107.117 419.651 C 99.463 408.477, 96.967 400.979, 91.923 374.019 C 83.489 328.946, 78.878 311.871, 70.448 294.500 C 66.056 285.449, 56.846 272, 55.041 272 C 54.507 272, 54.950 274.050, 56.023 276.554 M 565.841 308.750 C 554.713 324.992, 531.531 340.849, 509 347.631 C 504.325 349.038, 499.873 350.382, 499.107 350.618 C 498.341 350.854, 497.919 351.252, 498.169 351.502 C 498.419 351.753, 502.871 351.308, 508.062 350.513 C 541.375 345.415, 563.534 331.168, 569.412 311.068 C 570.285 308.081, 571 305.269, 571 304.818 C 571 302.746, 568.814 304.412, 565.841 308.750 M 130.003 384.822 C 129.999 386.447, 133.860 393.225, 140.072 402.500 C 150.493 418.059, 166.254 431.839, 183.393 440.376 C 188.402 442.871, 199.475 447.007, 208 449.567 C 232.485 456.919, 244.978 463.499, 258.539 476.185 C 262.122 479.537, 265.269 482.065, 265.531 481.802 C 266.737 480.596, 256.833 467.589, 248.125 458.942 C 232.477 443.402, 216.790 434.564, 187.227 424.631 C 178.276 421.623, 168.950 417.989, 166.502 416.554 C 158.972 412.141, 147.460 402.320, 138.527 392.689 C 133.840 387.635, 130.004 384.095, 130.003 384.822 M 520.500 396.663 C 509.630 403.163, 482.820 413.722, 470.250 416.453 C 468.462 416.841, 467 417.554, 467 418.036 C 467 418.518, 470.712 420.086, 475.250 421.520 C 481.251 423.416, 485.700 424.133, 491.573 424.150 C 503.956 424.185, 511.483 421.601, 521.687 413.813 C 526.658 410.019, 532.641 403.308, 531.801 402.468 C 531.580 402.247, 529.172 403.664, 526.450 405.616 C 518.566 411.268, 508.577 415.580, 499 417.465 C 495.932 418.069, 496.425 417.549, 503 413.252 C 507.125 410.557, 513.913 405.596, 518.084 402.228 C 530.161 392.478, 531.094 390.328, 520.500 396.663 M 324.318 435.249 C 322.933 445.404, 316.973 462.082, 305.465 488 C 295.190 511.142, 294.058 515.790, 296.288 525.666 C 298.705 536.368, 311.387 564, 313.881 564 C 314.312 564, 314.470 561.638, 314.233 558.750 C 313.352 548.045, 316.457 535.502, 328.408 501.500 C 334.201 485.017, 335.597 475.327, 334.151 461.647 C 333.066 451.384, 328.999 433.784, 326.697 429.391 C 325.554 427.209, 325.344 427.725, 324.318 435.249 M 514 441.044 C 506.228 445.795, 499.462 448.442, 488.586 450.986 C 478.390 453.372, 474.102 455.177, 466.721 460.189 C 461.371 463.823, 460.897 464.433, 461.556 466.845 C 464.381 477.195, 463.643 488.589, 459.421 499.807 C 458.089 503.344, 457 506.438, 457 506.681 C 457 506.925, 459.109 505.634, 461.687 503.812 C 468.565 498.951, 484.113 483.210, 495.578 469.500 C 504.628 458.677, 521.502 436.947, 520.787 437.035 C 520.629 437.055, 517.575 438.859, 514 441.044 M 103.066 448.687 C 103.845 449.684, 106.999 453.425, 110.076 457 C 115.522 463.329, 118.764 467.875, 128.399 482.691 C 133.684 490.818, 140.106 496.975, 150.914 504.275 C 164.999 513.788, 185.742 522.012, 199.828 523.667 L 205.380 524.320 184.263 501.873 C 163.153 479.434, 156.626 473.772, 140.735 464.115 C 127.097 455.826, 113.203 449.452, 104.575 447.527 C 101.865 446.922, 101.754 447.007, 103.066 448.687 M 419.649 476.757 C 418.322 482.086, 411.216 491.721, 404.085 497.858 C 397.974 503.117, 389.716 508.623, 378 515.248 C 371.652 518.837, 356.548 532.473, 347.036 543.203 C 342.599 548.207, 339.143 552.476, 339.356 552.689 C 339.569 552.902, 342.389 551.332, 345.622 549.200 C 348.855 547.068, 360.500 540.444, 371.500 534.480 C 395.822 521.294, 401.462 517.581, 407.286 510.923 C 415.004 502.101, 421.670 485.154, 420.783 476.615 L 420.459 473.500 419.649 476.757 M 218.653 508.315 C 222.982 512.889, 228.061 519.514, 229.940 523.039 C 234.001 530.657, 243.988 540.844, 253.777 547.351 C 260.429 551.774, 274.754 558.580, 275.609 557.724 C 275.834 557.500, 272.948 553.757, 269.197 549.408 C 265.445 545.059, 259.372 537.395, 255.701 532.377 C 245.146 517.950, 231.382 506.233, 219.839 501.847 C 210.281 498.215, 210.088 499.267, 218.653 508.315" stroke="none" fill="#6e5a20" fill-rule="evenodd"/><path d="M 503.500 104 C 505.648 106.200, 507.631 108, 507.906 108 C 508.181 108, 506.648 106.200, 504.500 104 C 502.352 101.800, 500.369 100, 500.094 100 C 499.819 100, 501.352 101.800, 503.500 104 M 169.751 133.739 C 164.334 145.332, 160.615 156.817, 158.407 168.771 C 156.404 179.615, 155.685 181.521, 155.299 177 C 153.991 161.639, 153.122 160.148, 151.107 169.799 C 148.655 181.537, 150.419 197.982, 155.127 207.281 C 157.620 212.207, 165.014 223, 165.895 223 C 166.228 223, 166.518 210.063, 166.541 194.250 C 166.585 162.955, 167.931 149.487, 172.651 133.117 C 173.980 128.507, 174.898 124.565, 174.690 124.357 C 174.482 124.149, 172.259 128.371, 169.751 133.739 M 129.550 155.750 C 119.121 170.027, 116.392 193.092, 122.460 215.686 C 125.360 226.485, 130.617 239.449, 132.821 241.239 C 134.131 242.302, 134.273 242.229, 133.728 240.775 C 132.334 237.054, 129.035 217.806, 127.930 206.944 C 125.982 187.812, 128.537 163.597, 133.520 153.962 C 135.910 149.339, 133.410 150.465, 129.550 155.750 M 529.143 171.500 C 528.933 200.148, 518.568 227.308, 498.381 252.111 C 495.421 255.748, 493 259.015, 493 259.371 C 493 260.415, 510.949 251.105, 517.500 246.664 C 529.702 238.392, 538.214 226.955, 541.469 214.458 C 543.285 207.486, 543.345 196.093, 541.595 190.500 L 540.344 186.500 539.605 192 C 539.199 195.025, 538.184 199.948, 537.350 202.940 C 535.741 208.713, 529.184 222.517, 528.416 221.749 C 528.166 221.499, 528.747 218.190, 529.709 214.397 C 531.106 208.884, 531.444 203.385, 531.391 187 C 531.352 175.036, 530.885 165.459, 530.270 164 C 529.430 162.007, 529.201 163.529, 529.143 171.500 M 568.253 212.764 C 564.170 246.385, 548.709 272.675, 523.504 288.855 C 511.801 296.368, 512.094 296.142, 515 295.410 C 520.374 294.056, 533.813 287.067, 539.876 282.472 C 553.001 272.527, 563.782 255.461, 567.970 238 C 570.265 228.428, 571.788 207.230, 570.363 204.683 C 569.700 203.500, 569.098 205.806, 568.253 212.764 M 113.358 220.491 C 113.717 225.161, 114.907 233.599, 116.002 239.241 C 117.098 244.884, 117.993 249.950, 117.993 250.500 C 117.989 253.393, 111.505 241.073, 107.873 231.272 C 105.575 225.072, 103.497 220, 103.254 220 C 103.011 220, 103.119 222.363, 103.494 225.250 C 104.820 235.466, 107.879 247.764, 111.533 257.571 C 115.310 267.708, 124.498 288, 125.311 288 C 125.558 288, 123.990 281.875, 121.825 274.389 C 119.660 266.903, 118.071 260.596, 118.293 260.373 C 118.516 260.151, 121.223 263.264, 124.308 267.291 C 127.393 271.319, 130.894 275.489, 132.088 276.557 C 134.068 278.329, 134.016 278.018, 131.497 273.022 C 128.843 267.758, 125 257.597, 125 255.843 C 125 255.380, 125.684 255, 126.520 255 C 127.812 255, 127.755 254.437, 126.136 251.250 C 123.725 246.504, 119.921 234.316, 116.928 221.750 C 115.651 216.387, 114.179 212, 113.656 212 C 113.078 212, 112.961 215.333, 113.358 220.491 M 269 228.594 C 267.075 229.428, 264.222 231.323, 262.661 232.805 C 259.660 235.654, 256.526 240.860, 257.329 241.663 C 257.592 241.925, 259.694 241.176, 262.001 239.999 C 264.309 238.822, 267.984 237.778, 270.168 237.680 L 274.139 237.500 277.957 249.061 C 280.057 255.420, 283.007 263.070, 284.513 266.061 C 288.157 273.300, 295.929 284.861, 297.889 285.958 C 299.256 286.723, 299.297 287.459, 298.202 291.668 C 295.976 300.227, 291.276 308.221, 280.954 321 C 275.401 327.875, 268.786 336.762, 266.254 340.750 C 263.723 344.738, 261.371 348, 261.028 348 C 259.750 348, 253.129 340.248, 248.116 332.881 C 242.063 323.986, 233.642 315.735, 218.889 304.243 C 195.283 285.857, 182.183 264.019, 179.533 238.641 C 179.140 234.869, 178.464 232.169, 178.033 232.641 C 175.073 235.881, 169.313 261.128, 170.477 265.763 C 171.664 270.495, 169.628 270.266, 167.480 265.425 L 165.295 260.500 164.155 264.500 C 161.089 275.260, 160.212 298.803, 162.534 308 C 163.111 310.282, 162.900 310.195, 160.110 307 L 157.054 303.500 157.027 307.199 C 156.947 318.121, 163.949 343.355, 170.519 355.829 C 172.592 359.763, 173.313 361.950, 172.426 361.610 C 171.642 361.309, 171 361.268, 171 361.520 C 171 362.517, 183.257 382.543, 186.225 386.395 C 195.880 398.928, 199.974 402.763, 208.226 407.012 C 221.502 413.847, 234.143 421.471, 239.392 425.810 L 244.266 429.837 246.722 426.919 C 248.073 425.313, 249.478 424, 249.845 424 C 250.212 424, 251.147 425.462, 251.923 427.250 C 252.700 429.038, 258.668 435.830, 265.186 442.344 C 271.704 448.858, 279.991 457.970, 283.602 462.594 C 287.212 467.217, 290.534 471, 290.984 471 C 292.029 471, 311.632 431.261, 314.122 424.093 C 316.477 417.313, 316.596 404.835, 314.446 390.128 C 312.317 375.565, 311.412 372.572, 306.861 365.036 C 297.980 350.330, 296.758 336.733, 303.130 323.500 C 306.392 316.723, 306.500 316.109, 306.500 304.250 C 306.500 297.512, 306.635 292, 306.800 292 C 306.964 292, 308.449 292.698, 310.100 293.552 C 311.750 294.405, 313.954 294.832, 314.999 294.500 C 319.055 293.213, 318.543 288.691, 312.567 273 C 310.786 268.325, 307.841 260.563, 306.022 255.750 C 304.202 250.938, 302.411 247, 302.041 247 C 301.671 247, 300.357 245.201, 299.121 243.002 C 296.032 237.505, 292.294 233.226, 287.636 229.851 C 284.398 227.506, 282.707 227.007, 278.100 227.039 C 275.020 227.061, 270.925 227.760, 269 228.594 M 269.500 230.881 C 267.300 231.891, 264.600 233.750, 263.500 235.011 L 261.500 237.305 264.610 236.706 C 266.320 236.376, 269.957 235.809, 272.691 235.447 L 277.662 234.787 281.799 239.627 C 285.499 243.955, 291.739 254, 290.729 254 C 290.511 254, 288.680 251.601, 286.661 248.670 C 282.827 243.103, 278.317 238.349, 277.575 239.092 C 276.780 239.887, 279.228 249.432, 281.615 254.842 C 284.395 261.143, 295.193 277.872, 300.055 283.410 C 301.933 285.548, 305.005 287.940, 306.882 288.724 C 310.016 290.034, 310.455 289.990, 312.259 288.185 C 314.212 286.232, 314.190 286.135, 308.491 271.860 C 296.845 242.693, 291.976 234.174, 284.800 230.415 C 281.089 228.471, 274.297 228.678, 269.500 230.881 M 78.275 251.086 C 78.613 251.864, 82.432 261.050, 86.762 271.500 C 98.812 300.586, 106.215 311.257, 131.139 335.470 C 148.781 352.610, 153.695 355.991, 141.899 342.873 C 121.479 320.166, 109.254 303.192, 99.613 284.160 C 92.313 269.749, 81.414 251.992, 78.926 250.454 C 78.065 249.922, 77.857 250.124, 78.275 251.086 M 177.324 264.599 C 175.913 268.276, 178.883 296.065, 181.694 305.492 C 182.228 307.280, 182.112 307.337, 180.563 306.052 C 178.292 304.167, 173.700 294.955, 171.439 287.750 C 168.723 279.095, 167.603 280.534, 168.327 291.750 C 169.119 304.042, 171.786 315.048, 177.531 329.741 C 180.014 336.092, 181.864 341.469, 181.643 341.691 C 181.110 342.223, 172.572 330.829, 169.178 325.055 C 165.211 318.308, 165.096 322.721, 168.976 332.782 C 174.003 345.818, 183.784 361.091, 198.463 378.826 C 202.708 383.955, 205.996 388.337, 205.769 388.564 C 204.816 389.518, 194.951 382.197, 187.750 375.192 C 183.488 371.046, 180 367.974, 180 368.366 C 180 369.874, 184.427 377.758, 188.497 383.500 C 198.079 397.018, 213.115 407.567, 230.402 412.900 C 237.802 415.182, 239.235 415.037, 236.756 412.256 C 235.227 410.541, 229 398.828, 229 397.668 C 229 397.346, 231.137 398.392, 233.750 399.992 C 238.190 402.712, 244 404.830, 244 403.729 C 244 403.461, 242.861 400.753, 241.468 397.711 C 238.831 391.950, 234.025 372.589, 234.009 367.661 L 234 364.822 237.077 367.411 C 238.769 368.835, 240.532 370, 240.995 370 C 241.458 370, 242.584 370.287, 243.497 370.637 C 244.679 371.091, 243.833 368.636, 240.567 362.134 C 236.280 353.597, 230 338.814, 230 337.258 C 230 336.879, 232.363 338.856, 235.250 341.653 C 240.507 346.744, 248.053 352.280, 248.765 351.568 C 248.974 351.360, 246.974 348.488, 244.322 345.187 C 241.670 341.886, 237.250 334.997, 234.500 329.878 C 228.725 319.128, 222.702 312.371, 208.038 300.190 C 196.587 290.678, 192.779 286.168, 184.446 272.250 C 181.400 267.163, 178.690 263, 178.423 263 C 178.156 263, 177.661 263.720, 177.324 264.599 M 470 269.530 C 464.948 274.723, 452.545 283.262, 443.500 287.773 C 440.200 289.420, 427.696 294.873, 415.713 299.893 C 389.193 311.002, 377.198 316.948, 365.458 324.805 C 349.103 335.750, 344.229 341.209, 340.103 353.200 C 337.408 361.033, 335.070 375.563, 334.342 389.004 L 333.719 400.508 338.956 408.504 C 345.567 418.599, 355.127 438.085, 358.559 448.464 C 362.480 460.318, 364.910 473.955, 365.649 488.250 C 366.012 495.262, 366.577 500.999, 366.904 500.997 C 368.513 500.989, 383.063 487.692, 387.710 481.984 C 394.289 473.902, 401.306 459.997, 404.103 449.500 C 405.762 443.269, 406.242 438.514, 406.272 428 C 406.322 410.814, 404.307 401.220, 396.507 381.500 C 395.157 378.087, 406.606 389.796, 420.218 405.750 C 427.374 414.137, 433.606 421, 434.067 421 C 436.425 421, 445.243 410.267, 448.919 402.922 C 453.131 394.507, 461.203 370.825, 462.492 363.104 C 463.278 358.390, 463.103 358.299, 457.585 360.557 C 456.027 361.194, 456.236 360.515, 458.700 356.920 C 466.143 346.066, 469.734 335.609, 472.456 316.872 C 474.117 305.437, 474.398 300, 473.329 300 C 472.960 300, 471.812 300.765, 470.778 301.701 C 469.004 303.307, 469.012 303.139, 470.925 298.676 C 473.764 292.052, 475.155 282.914, 474.802 273.202 L 474.500 264.904 470 269.530 M 462 284.622 C 457.839 288.904, 451.064 292.444, 437.500 297.422 C 401.935 310.474, 390.269 315.879, 373.574 327.043 C 347.655 344.375, 342.624 353.055, 341.432 382.500 L 340.865 396.500 346.620 385.690 C 353.712 372.370, 361.409 363.651, 370.174 359.011 L 376.500 355.663 372.163 360.036 C 369.778 362.441, 366.721 366.591, 365.370 369.257 C 362.975 373.983, 360.363 384.696, 361.361 385.695 C 361.636 385.969, 362.752 384.463, 363.843 382.347 C 370.466 369.492, 384.301 365.565, 400.415 371.966 C 413.862 377.308, 426.541 376.791, 439.259 370.384 C 449.677 365.135, 452.591 362, 447.052 362 C 444.067 362, 429.639 357.745, 427.143 356.129 C 425.555 355.100, 426.121 354.695, 431.500 353.010 C 444.350 348.986, 456.936 339.056, 461.551 329.300 C 463.957 324.216, 466.922 309.588, 465.779 308.445 C 465.462 308.128, 462.739 309.259, 459.729 310.957 C 454.506 313.905, 439.110 320, 436.887 320 C 436.307 320, 439.278 317.696, 443.488 314.880 C 452.141 309.092, 458.044 302.288, 462.035 293.500 C 464.505 288.061, 466.655 280.984, 465.829 281.011 C 465.648 281.017, 463.925 282.642, 462 284.622 M 565.049 310.046 C 552.887 326.747, 533.784 339.683, 509.531 347.642 C 498.369 351.304, 500.125 352.073, 513.750 349.488 C 534.032 345.641, 554.185 335.313, 562.383 324.565 C 567.037 318.463, 572.535 304, 570.201 304 C 569.789 304, 567.470 306.720, 565.049 310.046 M 287.465 327.153 C 282.654 333.685, 275.430 347.983, 270.487 360.756 C 268.943 364.747, 267.480 367.813, 267.236 367.570 C 266.280 366.614, 270.343 350.037, 273.599 341.607 C 275.490 336.710, 276.873 332.540, 276.673 332.340 C 276.025 331.692, 267.252 345.543, 263.187 353.632 C 256.758 366.422, 254.847 373.806, 254.261 388.107 C 253.410 408.889, 257.147 422.652, 268.038 438.852 C 273.463 446.920, 286.195 461, 288.067 461 C 289.384 461, 294.678 449.121, 296.478 442.129 C 300.355 427.064, 300.419 406.783, 296.618 397.669 L 295.297 394.500 294.032 400.500 C 293.337 403.800, 292.068 408.300, 291.211 410.500 C 289.543 414.787, 283.107 425.455, 282.549 424.859 C 282.364 424.662, 282.855 421.575, 283.641 418 C 285.110 411.316, 286.801 374.001, 285.584 375.131 C 285.210 375.479, 283.847 380.879, 282.556 387.131 C 278.980 404.444, 278.139 405.517, 278.063 392.860 C 277.978 378.587, 282.091 357.696, 290.112 331.655 C 291.780 326.241, 292.918 321.585, 292.642 321.308 C 292.365 321.032, 290.036 323.662, 287.465 327.153 M 130 384.712 C 130 386.281, 137.625 398.952, 142.694 405.806 C 153.184 419.991, 168.189 432.614, 183.929 440.496 C 190.537 443.805, 193.559 444.900, 211.725 450.566 C 219.548 453.006, 228.511 456.136, 231.641 457.520 C 239.807 461.131, 252.570 469.918, 259.250 476.526 C 262.413 479.655, 265 481.786, 265 481.262 C 265 478.860, 256.006 466.781, 249.115 459.928 C 232.887 443.792, 212.717 432.485, 185 423.987 C 179.225 422.216, 171.971 419.493, 168.880 417.935 C 161.155 414.041, 150.253 405.123, 139.250 393.696 C 134.162 388.413, 130 384.370, 130 384.712 M 513 400.638 C 505.344 404.526, 494.211 409.023, 484.271 412.243 C 475.345 415.134, 468.032 417.800, 468.021 418.167 C 468.009 418.534, 469.913 419.529, 472.250 420.377 C 487.839 426.035, 503.859 425.059, 516 417.712 C 519.958 415.317, 532 404.126, 532 402.843 C 532 402.381, 529.862 403.525, 527.250 405.384 C 520.242 410.372, 513.178 413.667, 503.446 416.488 C 492.270 419.726, 491.253 419.624, 498.036 415.942 C 505.882 411.683, 529.314 393.696, 526.430 394.145 C 525.918 394.225, 519.875 397.146, 513 400.638 M 380.032 401.185 C 380.014 401.562, 380.423 402.982, 380.939 404.341 C 384.391 413.418, 384.142 432.717, 380.361 449.286 C 378.546 457.239, 378.063 456.931, 376.138 446.589 C 375.050 440.741, 369.424 427.243, 368.472 428.195 C 368.201 428.466, 368.631 430.536, 369.427 432.794 C 372.193 440.631, 373.317 452.858, 372.686 468.230 C 371.974 485.563, 371.652 485.354, 382.072 474.304 C 389.257 466.686, 395.059 456.516, 397.364 447.500 C 399.344 439.752, 400.473 426.965, 399.497 423.336 C 398.839 420.891, 398.557 421.504, 397.456 427.786 C 396.741 431.864, 394.615 438.249, 392.628 442.286 C 390.675 446.254, 389.385 448.150, 389.762 446.500 C 390.917 441.440, 390.512 425.810, 389.075 420 C 387.544 413.808, 384.018 405.505, 381.644 402.500 C 380.775 401.400, 380.049 400.808, 380.032 401.185 M 324.317 436.250 C 322.959 446.198, 317.808 460.544, 305.907 487.528 C 301.049 498.543, 296.573 509.893, 295.960 512.749 C 294.565 519.256, 295.798 525.971, 300.691 538.500 C 304.127 547.299, 312.795 563.998, 313.929 564.002 C 314.243 564.003, 314.351 561.126, 314.169 557.609 C 313.565 545.926, 315.948 536.599, 328.904 499.923 C 333.745 486.217, 335.225 474.930, 333.941 461.501 C 332.929 450.915, 327.324 428, 325.746 428 C 325.580 428, 324.936 431.712, 324.317 436.250 M 418.062 480.714 C 413.653 490.801, 400.974 502.605, 385.136 511.365 C 380.553 513.900, 374.671 517.540, 372.065 519.453 C 366.803 523.315, 339.579 550.913, 340.310 551.643 C 340.565 551.898, 343.862 550.127, 347.637 547.707 C 351.411 545.287, 363.500 538.443, 374.500 532.497 C 385.500 526.551, 396.983 519.748, 400.018 517.378 C 410.046 509.548, 416.539 498.900, 419.569 485.315 C 421.697 475.774, 421.065 473.843, 418.062 480.714 M 321.868 480.500 C 321.520 481.050, 320.903 483.075, 320.498 485 C 319.208 491.122, 314.485 500.268, 308.671 507.902 C 305.552 511.997, 302.745 516.845, 302.387 518.751 C 301.324 524.416, 302.651 532.384, 305.611 538.113 L 308.394 543.500 309.205 538 C 311.003 525.801, 312.365 521.095, 316.674 512.197 C 319.765 505.814, 321.482 500.708, 322.144 495.931 C 323.147 488.692, 322.969 478.758, 321.868 480.500 M 218.493 507.250 C 222.153 511.238, 226.971 517.650, 229.198 521.500 C 233.890 529.609, 242.902 539.300, 251.542 545.525 C 257.723 549.979, 271.351 557, 273.815 557 C 274.586 557, 273.285 554.780, 270.843 551.929 C 268.454 549.139, 262 540.938, 256.500 533.704 C 244.973 518.543, 235.451 509.927, 223.634 503.967 C 211.660 497.928, 210.573 498.622, 218.493 507.250" stroke="none" fill="#c6a23a" fill-rule="evenodd"/><path d="M 270.591 230.481 C 266.755 231.848, 262.153 235.486, 263.084 236.417 C 263.344 236.677, 265.344 236.475, 267.528 235.969 C 275.508 234.118, 277.496 234.620, 281.870 239.590 C 285.898 244.166, 292.485 254.849, 291.738 255.595 C 291.522 255.811, 289.242 252.910, 286.671 249.148 C 284.101 245.386, 281.098 241.494, 279.999 240.499 C 278.041 238.727, 278 238.754, 278 241.822 C 278 249.100, 286.442 265.333, 298.277 280.812 C 303.914 288.184, 310.059 291.043, 312.903 287.617 C 314.942 285.160, 296.934 242.411, 291.023 235.679 C 285.164 229.006, 279.076 227.457, 270.591 230.481 M 177.422 266.565 C 176.545 271.237, 177.674 284.038, 180.054 296.435 C 181.104 301.900, 181.779 306.554, 181.555 306.778 C 180.540 307.794, 174.927 298.228, 172.432 291.230 C 168.893 281.303, 168 280.396, 168 286.728 C 168 299.573, 172.022 315.633, 180.841 338 L 183.010 343.500 179.365 339.500 C 177.361 337.300, 173.533 332.125, 170.860 328 C 165.458 319.663, 164.838 320.374, 168.380 330.844 C 172.594 343.299, 182.731 359.515, 197.618 377.615 C 202.228 383.220, 206 388.084, 206 388.423 C 206 390.310, 196.683 383.781, 189.405 376.793 C 184.517 372.101, 181 369.382, 181 370.297 C 181 373.281, 193.069 389.902, 199.204 395.367 C 207.024 402.333, 217.699 408.445, 228.615 412.208 C 237.468 415.259, 239.412 415.271, 236.799 412.256 C 234.744 409.885, 230.368 402.038, 229.524 399.210 C 228.855 396.971, 228.948 396.986, 233.670 399.884 C 240.746 404.227, 246.642 405.205, 243.105 401.450 C 241.342 399.577, 237.059 385.961, 235.512 377.312 C 234.645 372.465, 233.702 367.428, 233.416 366.117 L 232.895 363.734 235.942 366.298 C 239.102 368.957, 242.773 370.560, 243.664 369.670 C 243.946 369.388, 243.049 367.209, 241.671 364.829 C 239.159 360.489, 231.846 343.655, 230.466 339.038 C 229.875 337.060, 231.015 337.748, 236.262 342.538 C 242.647 348.365, 250.684 353.925, 248.404 350.936 C 247.802 350.146, 245.552 347.236, 243.404 344.470 C 241.257 341.703, 237.344 335.374, 234.709 330.405 C 228.759 319.186, 223.645 313.288, 210.480 302.460 C 197.238 291.569, 192.946 286.694, 185.107 273.644 C 181.591 267.790, 178.574 263, 178.402 263 C 178.231 263, 177.790 264.604, 177.422 266.565 M 463.264 283.857 C 460.740 287.271, 448.628 293.700, 437 297.797 C 396.690 312, 372.637 324.814, 355.960 340.970 C 345.129 351.463, 342.459 359.277, 341.433 383.474 L 340.881 396.500 346.191 386.435 C 354.823 370.069, 362.515 361.608, 372.581 357.402 L 376.490 355.768 371.675 360.917 C 369.026 363.749, 365.960 368.097, 364.862 370.580 C 362.609 375.672, 360.855 385, 362.149 385 C 362.617 385, 363 384.627, 363 384.171 C 363 383.716, 364.342 381.316, 365.983 378.840 C 372.917 368.371, 385.175 365.986, 401 372.025 C 415.828 377.683, 429.358 376.401, 443.210 368.026 C 446.522 366.023, 449.293 363.967, 449.366 363.456 C 449.440 362.945, 447.172 362.193, 444.327 361.783 C 441.482 361.374, 435.924 359.757, 431.976 358.190 L 424.798 355.342 432.403 352.568 C 446.677 347.362, 456.841 338.958, 461.701 328.342 C 463.974 323.378, 466.843 309.510, 465.811 308.478 C 465.568 308.234, 462.378 309.623, 458.723 311.564 C 452.463 314.888, 438.935 320.027, 436.575 319.977 C 435.984 319.965, 437.850 318.491, 440.722 316.702 C 451.825 309.788, 460.391 299.346, 464.097 288.208 C 465.257 284.723, 466.015 281.682, 465.782 281.448 C 465.549 281.215, 464.416 282.299, 463.264 283.857 M 287.271 327.750 C 282.372 334.760, 277.108 345.062, 271.305 359 L 266.933 369.500 267.531 363.500 C 267.860 360.200, 269.870 352.333, 271.998 346.017 C 274.126 339.701, 275.728 334.394, 275.557 334.224 C 274.960 333.627, 264.716 350.350, 261.976 356.395 C 255.785 370.053, 254.500 376.257, 254.500 392.500 C 254.500 405.438, 254.822 408.531, 256.845 415 C 261.571 430.112, 270.002 443.725, 281.861 455.396 L 287.852 461.291 289.934 457.896 C 293.035 452.837, 295.699 445.186, 297.565 435.977 C 299.474 426.555, 299.122 405.340, 296.944 398.500 L 295.670 394.500 294.014 401.500 C 293.103 405.350, 291.364 410.725, 290.149 413.445 C 288.035 418.178, 283.125 425.477, 282.500 424.816 C 282.336 424.642, 282.812 421.350, 283.558 417.500 C 285.285 408.591, 286.673 378, 285.350 378 C 284.822 378, 283.816 381.415, 283.115 385.588 C 282.414 389.761, 281.125 395.499, 280.251 398.338 L 278.662 403.500 277.797 399 C 275.782 388.515, 281.408 358.669, 291.415 326.750 C 292.234 324.137, 292.541 322, 292.097 322 C 291.653 322, 289.481 324.587, 287.271 327.750 M 380.026 401 C 380.024 401.275, 380.674 403.651, 381.472 406.279 C 383.740 413.755, 384.356 424.728, 383.059 434.553 C 381.690 444.918, 379.087 456, 378.021 456 C 377.616 456, 377.008 453.346, 376.669 450.103 C 376.024 443.935, 373.039 435.216, 370.337 431.612 C 369.158 430.040, 368.906 429.948, 369.348 431.255 C 372.188 439.654, 373.238 450.328, 372.781 466.162 C 372.220 485.613, 371.812 485.232, 381.781 474.575 C 388.842 467.026, 392.406 461.319, 395.665 452.343 C 398.428 444.729, 400.261 429.955, 399.056 425 L 398.205 421.500 398.089 425 C 397.949 429.242, 393.023 443.738, 390.585 447.086 L 388.826 449.500 389.557 446 C 391.777 435.357, 389.378 417.481, 384.466 408.071 C 381.914 403.180, 380.033 400.186, 380.026 401 M 320.662 485.041 C 319.645 490.385, 313.773 501.932, 309.495 507 C 301.156 516.880, 299.958 525.913, 305.450 537.500 L 308.294 543.500 309.497 535 C 311.018 524.260, 311.239 523.545, 316.736 511.627 C 321.467 501.370, 323.654 490.044, 322.048 484.123 C 321.354 481.565, 321.319 481.588, 320.662 485.041" stroke="none" fill="#e1cf98" fill-rule="evenodd"/><path d="M 271.500 14.445 C 253.874 17.550, 243.545 20.128, 226.807 25.598 C 114.576 62.278, 33.041 157.542, 14.001 274.238 C 12.284 284.762, 12 291.249, 12 320 C 12 348.751, 12.284 355.238, 14.001 365.762 C 35.878 499.842, 140.158 604.122, 274.238 625.999 C 284.762 627.716, 291.249 628, 320 628 C 348.751 628, 355.238 627.716, 365.762 625.999 C 499.842 604.122, 604.122 499.842, 625.999 365.762 C 627.716 355.238, 628 348.751, 628 320 C 628 291.249, 627.716 284.762, 625.999 274.238 C 604.122 140.158, 499.842 35.878, 365.762 14.001 C 355.101 12.262, 348.996 12.010, 319 12.077 C 287.702 12.147, 283.294 12.367, 271.500 14.445 M 266.500 52.456 C 256.765 54.711, 252.576 56.189, 225.500 66.924 C 199.818 77.107, 173.637 91.720, 155.250 106.134 L 149 111.034 149 107.153 C 149 97.217, 144.733 84.905, 139.497 79.735 C 137.957 78.214, 136.556 77.111, 136.383 77.283 C 136.211 77.456, 137.191 80.374, 138.562 83.768 C 142.428 93.340, 143.508 100.156, 142.130 106.300 C 139.894 116.267, 136.406 121.907, 125.639 132.969 C 114.512 144.402, 105.639 155.179, 97.837 166.742 L 92.856 174.124 89.012 168.756 C 85.588 163.975, 78.704 158, 76.618 158 C 76.193 158, 77.425 159.847, 79.358 162.105 C 82.637 165.936, 88 177.290, 88 180.403 C 88 181.163, 85.899 185.520, 83.332 190.086 C 78.042 199.492, 70.366 216.335, 66.964 226 C 64.129 234.055, 63.776 234.461, 60.857 233.026 L 58.500 231.866 60.898 233.799 L 63.297 235.732 60.642 245.116 C 59.182 250.277, 57.187 258.235, 56.209 262.799 C 55.232 267.364, 54.222 270.889, 53.966 270.632 C 53.710 270.376, 53.483 271.817, 53.463 273.833 C 53.443 275.850, 52.864 281.550, 52.177 286.500 C 50.159 301.036, 49.600 326.055, 50.948 341.500 C 56.556 405.775, 82.283 462.472, 126.442 507.869 C 173.202 555.941, 232.946 583.876, 300.162 589.097 C 308.598 589.752, 315.927 590.673, 316.450 591.144 C 317.717 592.286, 327.743 592.246, 328.167 591.097 C 328.350 590.601, 334.350 589.687, 341.500 589.066 C 408.297 583.265, 467.306 555.418, 513.558 507.869 C 579.658 439.915, 605.006 343.585, 581.043 251.406 C 578.289 240.814, 578.184 239.613, 578.723 224.854 C 579.353 207.580, 577.765 194.539, 573.505 182.015 C 571.044 174.780, 564.042 160.624, 563.294 161.372 C 563.059 161.608, 563.346 165.253, 563.933 169.473 C 565.149 178.213, 565.383 203.009, 564.250 202.982 C 563.837 202.972, 561.303 198.809, 558.617 193.732 C 555.931 188.654, 551.320 180.774, 548.370 176.220 C 545.420 171.667, 541.486 164.004, 539.628 159.193 C 534.959 147.103, 530.206 137.930, 523.174 127.439 C 516.356 117.267, 504.695 103.531, 499.543 99.601 L 496.067 96.949 500.928 104.787 C 506.152 113.211, 513.257 126.931, 514.501 131 C 515.053 132.806, 512.660 130.988, 505.883 124.455 C 462.446 82.583, 404.800 56.601, 343 51.041 C 322.783 49.223, 298.828 50.001, 279.685 53.100 C 271.135 54.483, 270.048 53.726, 277.703 51.719 C 287.540 49.139, 278.151 49.757, 266.500 52.456" stroke="none" fill="#ddc8b9" fill-rule="evenodd"/><path d="M 295 51.151 C 263.613 54.057, 245.319 60.806, 221.878 78.130 C 207.256 88.936, 197.699 99.782, 188.203 116.342 C 183.490 124.562, 176.992 142.024, 175.536 150.385 L 174.859 154.270 177.264 152.385 C 204.028 131.415, 223.899 120.286, 250.276 111.497 C 295.945 96.278, 344.055 96.278, 389.724 111.497 C 439.113 127.955, 482.141 162.395, 508.315 206.420 L 512.430 213.339 514.815 207.920 C 521.332 193.111, 523.674 170.203, 520.442 152.860 C 517.375 136.397, 516.605 134.888, 506.055 124.664 C 451.095 71.397, 372.400 43.987, 295 51.151 M 219 69.537 C 198.346 77.921, 170.161 94.167, 154.250 106.859 C 149.608 110.562, 149 111.478, 148.996 114.773 C 148.988 121.745, 146.071 136.465, 142.032 149.915 C 136.124 169.584, 134.502 179.708, 134.888 194.500 L 135.044 200.500 136.985 198 C 138.053 196.625, 139.209 193.475, 139.555 191 C 140.780 182.225, 144.879 167.049, 148.511 157.838 C 161.993 123.653, 192.433 87.642, 222.898 69.839 C 230.959 65.129, 230.037 65.057, 219 69.537 M 124.852 133.750 C 114.439 144.494, 105.423 155.500, 97.894 166.657 L 92.970 173.953 98.347 185.227 C 101.304 191.427, 104.568 198.750, 105.601 201.500 L 107.478 206.500 108.189 200.863 C 109.908 187.232, 118.025 162.280, 128.461 138.550 C 131.980 130.548, 134.734 124, 134.581 124 C 134.428 124, 130.050 128.387, 124.852 133.750 M 545.702 178.750 C 552.038 204.233, 548.929 231.159, 536.871 255.228 C 531.489 265.971, 531.802 267.598, 538.068 261.462 C 550.479 249.311, 560.972 227.750, 563.475 209.261 C 564.152 204.260, 563.947 203.579, 558.944 194.261 C 554.180 185.388, 544.189 169, 543.543 169 C 543.397 169, 544.369 173.387, 545.702 178.750 M 86.153 185 C 80.163 194.432, 62.799 233.508, 64.193 234.420 C 64.362 234.530, 66.750 236.037, 69.500 237.767 C 77.613 242.872, 93.276 259.813, 100.599 271.404 C 102.194 273.930, 103.749 275.997, 104.053 275.998 C 104.356 275.999, 105.085 273.656, 105.672 270.791 C 106.564 266.436, 106.428 264.509, 104.842 259.041 C 102.046 249.400, 99.329 236.981, 94.988 214 C 92.859 202.725, 90.500 190.800, 89.746 187.500 L 88.376 181.500 86.153 185 M 61.204 243.119 C 58.392 252.703, 55.016 266.994, 55.007 269.347 C 55.003 270.362, 56.845 273.287, 59.099 275.847 C 72.420 290.967, 81.498 316.431, 89.994 362.500 C 92.225 374.600, 94.769 387.650, 95.646 391.500 C 100.042 410.784, 108.975 425.021, 123.360 435.664 C 130.575 441.002, 128.885 441.217, 118.947 436.225 C 101.852 427.637, 89.372 414.666, 79.761 395.500 C 70.715 377.460, 67.588 363.496, 67.801 342.093 C 68.022 319.975, 65.085 302.393, 57.812 282.295 C 54.204 272.322, 53.837 272.595, 52.061 286.573 C 50.137 301.729, 49.635 326.457, 50.948 341.500 C 56.556 405.775, 82.283 462.472, 126.442 507.869 C 166.726 549.283, 216.408 575.634, 273.500 585.869 C 285.065 587.942, 311.856 590.548, 314.058 589.814 C 315.990 589.170, 304.693 578.453, 296.243 572.915 C 288.633 567.927, 281.529 565.231, 268.957 562.559 C 253.826 559.343, 239.949 550.251, 220.973 531.121 C 211.274 521.343, 199.425 507.708, 196.304 502.734 C 195.862 502.030, 192.650 499.361, 189.167 496.805 C 165.746 479.613, 145.065 456.452, 129.963 430.500 C 126.762 425, 122.038 417.195, 119.464 413.155 C 106.652 393.049, 98.020 366.884, 94.910 338.723 C 93.774 328.434, 94.148 324.772, 96.007 328.008 C 99.655 334.362, 99.935 333.983, 99.968 322.639 L 100 311.778 95.113 303.639 C 87.828 291.505, 84.804 284.999, 79.013 269 C 73.050 252.525, 68.210 241.597, 65.336 238.119 L 63.369 235.738 61.204 243.119 M 576.089 249.750 C 574.032 262.005, 570.351 273.724, 565.333 284 C 561.317 292.223, 559.298 294.911, 550.311 304 C 541.429 312.983, 539.971 314.914, 540.215 317.364 L 540.500 320.229 548.387 314.892 C 562.779 305.153, 577.036 290.058, 581.452 279.885 C 585.658 270.196, 579.363 297.455, 574.096 311.740 C 566.030 333.617, 557.944 344.811, 541.764 356.500 C 536.704 360.155, 536.132 360.967, 535.114 365.917 C 534.501 368.896, 534 371.735, 534 372.227 C 534 373.945, 549.514 362.434, 557.223 354.996 C 561.500 350.869, 565 347.563, 565 347.649 C 565 347.736, 563.405 352.462, 561.456 358.153 C 556.263 373.318, 545.250 395.099, 537.518 405.500 C 528.677 417.391, 525.912 420.225, 517 426.528 C 510.958 430.801, 508.487 433.403, 504.288 439.914 L 499.076 447.995 502.788 446.448 C 506.566 444.873, 515.506 440.009, 519.961 437.105 C 523.070 435.078, 522.729 435.657, 514.132 447 C 496.196 470.668, 474.823 494.169, 463.091 503.123 C 459.566 505.814, 456.541 507.875, 456.370 507.703 C 456.198 507.532, 457.380 504.041, 458.995 499.946 C 460.610 495.851, 461.947 491.484, 461.966 490.242 C 461.997 488.149, 461.601 488.296, 456.558 492.242 C 452.518 495.403, 450.817 497.526, 449.956 500.483 C 446.748 511.509, 440.035 520.365, 431.622 524.668 C 428.939 526.040, 415.889 531.131, 402.622 535.981 C 375.080 546.049, 373.711 546.606, 361.543 552.689 C 340.213 563.352, 330.446 572.938, 328.096 585.514 C 327.111 590.790, 325.859 590.501, 343 588.959 C 425.106 581.573, 498.521 538.285, 544.063 470.407 C 582.311 413.398, 597.553 343.609, 586.412 276.500 C 584.422 264.512, 579.001 242, 578.104 242 C 577.711 242, 576.805 245.488, 576.089 249.750 M 277.286 392.500 C 277.294 395.250, 277.488 396.256, 277.718 394.736 C 277.947 393.216, 277.941 390.966, 277.704 389.736 C 277.467 388.506, 277.279 389.750, 277.286 392.500 M 299.286 418.500 C 299.294 421.250, 299.488 422.256, 299.718 420.736 C 299.947 419.216, 299.941 416.966, 299.704 415.736 C 299.467 414.506, 299.279 415.750, 299.286 418.500 M 106.151 453.075 C 113.280 461.173, 121.269 472.029, 125.979 480.022 C 134.983 495.302, 155.168 510.245, 177.766 518.359 C 183.634 520.466, 202.575 525, 205.511 525 C 206.455 525, 201.524 519.378, 190.602 508 C 185.585 502.775, 178.111 494.737, 173.991 490.138 C 169.871 485.539, 163.125 479.209, 159 476.071 C 140.110 461.700, 111.650 447, 102.720 447 C 101.206 447, 101.929 448.280, 106.151 453.075 M 321.717 480.750 C 321.496 481.163, 321.649 482.625, 322.058 484 C 322.752 486.337, 322.807 486.288, 322.900 483.250 C 322.996 480.115, 322.555 479.183, 321.717 480.750 M 270.576 539.196 C 274.277 546.565, 282.412 557.366, 286.992 560.994 C 291.490 564.556, 301.834 569.499, 302.790 568.543 C 304.199 567.135, 297.517 556.700, 292.618 552.659 C 286.991 548.016, 279.287 540.420, 277 537.259 C 276.162 536.100, 273.826 534.900, 271.706 534.539 L 267.912 533.893 270.576 539.196" stroke="none" fill="#cdb4a1" fill-rule="evenodd"/><path d="M 297.051 101.148 C 264.049 104.594, 227.552 117.606, 200 135.748 C 188.074 143.601, 175.412 153.484, 174.615 155.562 C 174.320 156.330, 173.542 162.825, 172.888 169.995 C 171.985 179.877, 171.971 186.012, 172.831 195.355 C 174.404 212.459, 176.079 223.069, 177.106 222.434 C 177.583 222.140, 180.316 217.883, 183.179 212.974 C 186.042 208.066, 188.483 204.152, 188.605 204.275 C 188.727 204.399, 188.489 206.339, 188.077 208.588 L 187.328 212.675 199.414 200.588 C 214.020 185.980, 226.209 177.121, 243.500 168.541 C 259.417 160.643, 270.447 156.766, 286.898 153.286 C 298.202 150.894, 301.611 150.620, 320 150.620 C 338.389 150.620, 341.798 150.894, 353.102 153.286 C 369.553 156.766, 380.583 160.643, 396.500 168.541 C 413.577 177.014, 425.911 185.937, 439.988 200.002 C 453.227 213.230, 461.914 225.019, 470.655 241.618 L 476.811 253.307 479.628 247.903 L 482.444 242.500 482.972 246.283 C 483.262 248.364, 483.890 250.106, 484.368 250.154 C 487.141 250.436, 500.507 234.467, 508.171 221.716 L 512.882 213.877 508.404 206.500 C 472.180 146.835, 410.675 108.056, 341.144 101.044 C 329.137 99.834, 309.190 99.880, 297.051 101.148 M 136.939 198.114 C 135.735 200.364, 136.374 207.425, 138.014 210 C 138.669 211.028, 138.974 209.061, 138.985 203.750 C 138.993 199.488, 138.791 196, 138.535 196 C 138.280 196, 137.561 196.951, 136.939 198.114 M 105.256 272.101 C 104.250 277.193, 104.257 277.216, 109.193 284.596 C 114.255 292.165, 123.921 303.413, 124.696 302.637 C 124.934 302.399, 122.663 297.935, 119.650 292.716 C 114.215 283.301, 108 270.160, 108 268.082 C 108 267.487, 107.610 267, 107.133 267 C 106.655 267, 105.811 269.296, 105.256 272.101 M 100 322.805 L 100 333.784 110.806 346.142 C 127.208 364.900, 146.690 381.816, 160.180 389.013 L 165.861 392.043 162.543 383.771 C 160.719 379.222, 158.450 373.025, 157.503 370 C 155.958 365.069, 155.202 364.145, 150.205 361.075 C 135.347 351.944, 117.226 335.059, 105.916 319.805 L 100 311.827 100 322.805 M 538.513 314.980 C 538.179 315.519, 532.415 319.620, 525.704 324.094 C 518.992 328.568, 513.275 332.458, 513 332.739 C 511.587 334.179, 518.744 331.254, 528.750 326.303 C 539.754 320.857, 540 320.662, 540 317.368 C 540 313.920, 539.582 313.249, 538.513 314.980 M 524 368.646 C 517.675 372.729, 504.625 380.851, 495 386.695 C 472.865 400.136, 468.436 403.073, 467.114 405.189 C 465.886 407.156, 466.771 406.775, 500.500 390.813 C 512.600 385.087, 525.015 378.789, 528.089 376.817 C 533.407 373.405, 533.734 372.952, 534.839 367.449 C 535.477 364.269, 535.887 361.566, 535.750 361.444 C 535.612 361.321, 530.325 364.562, 524 368.646 M 127.463 426.500 C 143.403 454.787, 164.465 478.530, 191.360 498.534 L 195.220 501.405 188.601 491.303 C 184.960 485.746, 181.305 479.582, 180.479 477.604 L 178.977 474.008 185.738 476.622 C 196.769 480.884, 203.941 482.997, 214.030 484.956 C 231.086 488.266, 248.632 496.685, 254.428 504.340 C 255.744 506.078, 259.112 513.103, 261.913 519.952 C 264.713 526.801, 267.341 532.737, 267.752 533.145 C 268.163 533.552, 270.365 534.303, 272.645 534.813 L 276.789 535.740 275.298 532.170 C 273.540 527.964, 273.365 516.072, 274.972 510.103 C 276.015 506.232, 275.885 505.690, 272.860 501.240 C 268.089 494.221, 257.648 484.474, 250.090 479.984 C 240.846 474.492, 232.139 471.668, 211.868 467.588 C 175.805 460.329, 152.534 449.182, 133.037 429.830 L 124.646 421.500 127.463 426.500 M 505.500 433.202 C 503.300 434.364, 494.750 438.327, 486.500 442.009 C 478.250 445.690, 466.671 451.104, 460.768 454.039 L 450.037 459.376 450.768 463.438 C 451.171 465.672, 451.500 473.913, 451.500 481.751 C 451.500 489.588, 451.733 496.001, 452.017 496.001 C 452.302 496, 454.889 493.940, 457.767 491.422 L 463 486.845 463 479.390 C 463 474.965, 462.379 470.449, 461.472 468.278 C 459.970 464.685, 459.993 464.580, 462.722 462.347 C 468.276 457.803, 479.012 452.936, 488.169 450.808 C 498.632 448.378, 499.918 447.403, 506.253 437.103 C 508.318 433.746, 509.893 431.020, 509.753 431.044 C 509.614 431.069, 507.700 432.039, 505.500 433.202" stroke="none" fill="#b5947b" fill-rule="evenodd"/><path d="M 277.417 50.866 C 277.915 51.671, 283 51.232, 283 50.383 C 283 50.173, 281.623 50, 279.941 50 C 278.259 50, 277.123 50.390, 277.417 50.866 M 186.946 98.750 L 183.500 102.500 187.250 99.054 C 189.313 97.158, 191 95.471, 191 95.304 C 191 94.540, 190.154 95.260, 186.946 98.750 M 300.204 151.036 C 259.160 156.210, 219.826 176.695, 193.205 206.760 C 186.129 214.751, 185.533 216.708, 185.512 232 C 185.492 246.615, 188.600 261.549, 192.604 266.079 C 193.372 266.947, 194 268.185, 194 268.829 C 194 269.473, 194.450 270, 195 270 C 195.550 270, 196 270.573, 196 271.274 C 196 271.975, 198.755 275.013, 202.123 278.024 C 205.490 281.036, 209.895 285.075, 211.911 287 C 213.926 288.925, 218.428 292.975, 221.915 296 C 229.814 302.854, 251.979 324.954, 254 327.991 C 254.825 329.231, 256.063 330.833, 256.750 331.551 C 257.438 332.269, 258.010 333.227, 258.022 333.679 C 258.034 334.130, 258.880 335.587, 259.902 336.916 L 261.759 339.332 265.627 333.416 C 267.754 330.162, 269.744 327.275, 270.050 327 C 270.356 326.725, 271.932 324.725, 273.553 322.555 C 275.174 320.386, 278.413 316.841, 280.750 314.678 C 283.087 312.515, 285 310.165, 285 309.456 C 285 308.747, 285.360 308.017, 285.800 307.833 C 287.160 307.266, 292.706 294.721, 293.462 290.500 C 293.856 288.300, 294.570 286.026, 295.048 285.448 C 295.581 284.802, 294.351 282.098, 291.862 278.448 C 285.850 269.629, 282.205 261.924, 277.952 249.046 L 274.139 237.500 270.168 237.680 C 267.984 237.778, 264.309 238.822, 262.001 239.999 C 259.694 241.176, 257.592 241.925, 257.329 241.663 C 256.527 240.860, 259.659 235.654, 262.661 232.803 C 266.666 228.998, 272.058 227, 278.318 227 C 282.649 227, 284.469 227.557, 287.636 229.851 C 292.299 233.229, 296.032 237.506, 299.132 243.020 C 301.063 246.457, 301.829 247.007, 304.445 246.831 C 308.472 246.559, 317.554 250.952, 322.250 255.442 C 324.313 257.413, 326 259.257, 326 259.538 C 326 259.818, 327.575 262.338, 329.500 265.136 C 331.425 267.935, 333 270.704, 333 271.290 C 333 272.557, 338.526 288.077, 340.673 292.839 C 343.726 299.611, 348.562 301.638, 355.435 299.025 C 358.870 297.719, 358.673 298.382, 354.387 302.544 C 348.651 308.114, 343.225 310.104, 334.333 309.898 C 327.378 309.737, 326.560 309.928, 324.882 312.111 C 323.871 313.425, 323.034 315.063, 323.022 315.750 C 323.010 316.438, 322.626 317, 322.168 317 C 321.389 317, 314.960 329.162, 311.596 337 C 309.277 342.403, 310.123 352.545, 313.381 358.380 C 316.385 363.760, 317.052 364.646, 322.310 370.232 C 324.470 372.527, 326.484 373.894, 326.960 373.390 C 327.423 372.900, 328.034 369.800, 328.320 366.500 C 328.605 363.200, 329.314 359.262, 329.895 357.750 C 330.475 356.238, 330.682 355, 330.353 355 C 330.024 355, 330.222 354.438, 330.793 353.750 C 331.363 353.063, 331.901 352.050, 331.988 351.500 C 332.699 346.998, 342.605 331.957, 345.809 330.513 C 347.014 329.970, 348 329.182, 348 328.763 C 348 328.343, 348.459 328, 349.020 328 C 349.581 328, 351.943 326.797, 354.270 325.326 C 360.520 321.376, 403.795 300, 405.542 300 C 406.257 300, 428.892 288.072, 439.920 281.885 C 446.822 278.012, 457.398 270.889, 457.833 269.819 C 458.017 269.369, 458.654 269, 459.249 269 C 460.456 269, 460.764 268.738, 470.165 259.730 L 476.830 253.343 470.665 241.636 C 461.914 225.019, 453.231 213.234, 439.988 200.002 C 425.911 185.937, 413.577 177.014, 396.500 168.541 C 371.239 156.007, 351.930 151.174, 324.500 150.521 C 315.150 150.298, 304.217 150.530, 300.204 151.036 M 178.921 234.751 C 179.399 238.202, 179.468 238.272, 179.798 235.628 C 179.995 234.049, 179.762 232.362, 179.279 231.879 C 178.776 231.376, 178.623 232.601, 178.921 234.751 M 207 294.500 C 208.866 296.425, 210.617 298, 210.892 298 C 211.167 298, 209.866 296.425, 208 294.500 C 206.134 292.575, 204.383 291, 204.108 291 C 203.833 291, 205.134 292.575, 207 294.500 M 565.453 301.250 L 561.500 305.500 565.750 301.547 C 569.702 297.871, 570.460 297, 569.703 297 C 569.540 297, 567.627 298.913, 565.453 301.250 M 236.500 319 C 238.648 321.200, 240.631 323, 240.906 323 C 241.181 323, 239.648 321.200, 237.500 319 C 235.352 316.800, 233.369 315, 233.094 315 C 232.819 315, 234.352 316.800, 236.500 319 M 126.500 332 C 130.874 336.400, 134.678 340, 134.953 340 C 135.228 340, 131.874 336.400, 127.500 332 C 123.126 327.600, 119.322 324, 119.047 324 C 118.772 324, 122.126 327.600, 126.500 332 M 121.500 338 C 124.209 340.750, 126.650 343, 126.925 343 C 127.200 343, 125.209 340.750, 122.500 338 C 119.791 335.250, 117.350 333, 117.075 333 C 116.800 333, 118.791 335.250, 121.500 338 M 67.252 346.500 C 67.263 348.700, 67.468 349.482, 67.707 348.238 C 67.946 346.994, 67.937 345.194, 67.687 344.238 C 67.437 343.282, 67.241 344.300, 67.252 346.500 M 558.958 353.749 C 554.655 358.334, 554.641 358.367, 558.563 354.729 C 560.798 352.656, 562.860 351.193, 563.146 351.480 C 563.433 351.766, 563.667 351.325, 563.667 350.500 C 563.667 349.675, 563.610 349, 563.542 349 C 563.473 349, 561.410 351.137, 558.958 353.749 M 156.545 367.250 C 158.365 373.272, 164.364 388.768, 165.675 390.834 C 167.062 393.020, 172.095 395.748, 176.199 396.538 C 177.194 396.730, 178.353 397.100, 178.775 397.361 C 179.197 397.622, 181.529 398.131, 183.957 398.494 C 188.720 399.204, 188.723 399.018, 184.030 393.798 C 181.459 390.938, 180.531 389.657, 178.021 385.500 C 176.693 383.300, 175.305 381.275, 174.938 381 C 174.570 380.725, 173.971 379.600, 173.607 378.500 C 173.242 377.400, 172.169 375.600, 171.222 374.500 C 169.546 372.554, 157.866 365, 156.532 365 C 156.165 365, 156.171 366.012, 156.545 367.250 M 464.500 406.469 C 462.850 407.821, 461.984 408.944, 462.576 408.964 C 463.167 408.984, 464.708 407.875, 466 406.500 C 468.985 403.323, 468.354 403.310, 464.500 406.469 M 98.500 422 C 100.648 424.200, 102.631 426, 102.906 426 C 103.181 426, 101.648 424.200, 99.500 422 C 97.352 419.800, 95.369 418, 95.094 418 C 94.819 418, 96.352 419.800, 98.500 422 M 215.500 505 C 218.209 507.750, 220.650 510, 220.925 510 C 221.200 510, 219.209 507.750, 216.500 505 C 213.791 502.250, 211.350 500, 211.075 500 C 210.800 500, 212.791 502.250, 215.500 505 M 192.958 511.250 C 195.410 513.862, 197.548 516, 197.708 516 C 198.459 516, 197.665 515.102, 193.250 510.958 L 188.500 506.500 192.958 511.250 M 220 530.500 C 223.543 534.075, 226.667 537, 226.942 537 C 227.217 537, 224.543 534.075, 221 530.500 C 217.457 526.925, 214.333 524, 214.058 524 C 213.783 524, 216.457 526.925, 220 530.500 M 354.971 534.750 L 348.500 541.500 355.250 535.029 C 358.962 531.470, 362 528.432, 362 528.279 C 362 527.543, 360.982 528.480, 354.971 534.750 M 239 535.500 C 240.866 537.425, 242.617 539, 242.892 539 C 243.167 539, 241.866 537.425, 240 535.500 C 238.134 533.575, 236.383 532, 236.108 532 C 235.833 532, 237.134 533.575, 239 535.500" stroke="none" fill="#a57b5a" fill-rule="evenodd"/><path d="M 503.500 104 C 505.648 106.200, 507.631 108, 507.906 108 C 508.181 108, 506.648 106.200, 504.500 104 C 502.352 101.800, 500.369 100, 500.094 100 C 499.819 100, 501.352 101.800, 503.500 104 M 169.751 133.739 C 164.334 145.332, 160.615 156.817, 158.407 168.771 C 156.404 179.615, 155.685 181.521, 155.299 177 C 153.991 161.639, 153.122 160.148, 151.107 169.799 C 148.655 181.537, 150.419 197.982, 155.127 207.281 C 157.620 212.207, 165.014 223, 165.895 223 C 166.228 223, 166.518 210.063, 166.541 194.250 C 166.585 162.955, 167.931 149.487, 172.651 133.117 C 173.980 128.507, 174.898 124.565, 174.690 124.357 C 174.482 124.149, 172.259 128.371, 169.751 133.739 M 129.550 155.750 C 119.121 170.027, 116.392 193.092, 122.460 215.686 C 125.360 226.485, 130.617 239.449, 132.821 241.239 C 134.131 242.302, 134.273 242.229, 133.728 240.775 C 132.334 237.054, 129.035 217.806, 127.930 206.944 C 125.982 187.812, 128.537 163.597, 133.520 153.962 C 135.910 149.339, 133.410 150.465, 129.550 155.750 M 529.143 171.500 C 528.933 200.148, 518.568 227.308, 498.381 252.111 C 495.421 255.748, 493 259.015, 493 259.371 C 493 260.415, 510.949 251.105, 517.500 246.664 C 529.702 238.392, 538.214 226.955, 541.469 214.458 C 543.285 207.486, 543.345 196.093, 541.595 190.500 L 540.344 186.500 539.605 192 C 539.199 195.025, 538.184 199.948, 537.350 202.940 C 535.741 208.713, 529.184 222.517, 528.416 221.749 C 528.166 221.499, 528.747 218.190, 529.709 214.397 C 531.106 208.884, 531.444 203.385, 531.391 187 C 531.352 175.036, 530.885 165.459, 530.270 164 C 529.430 162.007, 529.201 163.529, 529.143 171.500 M 568.253 212.764 C 564.170 246.385, 548.709 272.675, 523.504 288.855 C 511.801 296.368, 512.094 296.142, 515 295.410 C 520.374 294.056, 533.813 287.067, 539.876 282.472 C 553.001 272.527, 563.782 255.461, 567.970 238 C 570.265 228.428, 571.788 207.230, 570.363 204.683 C 569.700 203.500, 569.098 205.806, 568.253 212.764 M 113.358 220.491 C 113.717 225.161, 114.907 233.599, 116.002 239.241 C 117.098 244.884, 117.993 249.950, 117.993 250.500 C 117.989 253.393, 111.505 241.073, 107.873 231.272 C 105.575 225.072, 103.497 220, 103.254 220 C 103.011 220, 103.119 222.363, 103.494 225.250 C 104.820 235.466, 107.879 247.764, 111.533 257.571 C 115.310 267.708, 124.498 288, 125.311 288 C 125.558 288, 123.990 281.875, 121.825 274.389 C 119.660 266.903, 118.071 260.596, 118.293 260.373 C 118.516 260.151, 121.223 263.264, 124.308 267.291 C 127.393 271.319, 130.894 275.489, 132.088 276.557 C 134.068 278.329, 134.016 278.018, 131.497 273.022 C 128.843 267.758, 125 257.597, 125 255.843 C 125 255.380, 125.684 255, 126.520 255 C 127.812 255, 127.755 254.437, 126.136 251.250 C 123.725 246.504, 119.921 234.316, 116.928 221.750 C 115.651 216.387, 114.179 212, 113.656 212 C 113.078 212, 112.961 215.333, 113.358 220.491 M 269 228.594 C 267.075 229.428, 264.222 231.323, 262.661 232.805 C 259.660 235.654, 256.526 240.860, 257.329 241.663 C 257.592 241.925, 259.694 241.176, 262.001 239.999 C 264.309 238.822, 267.984 237.778, 270.168 237.680 L 274.139 237.500 277.957 249.061 C 280.057 255.420, 283.007 263.070, 284.513 266.061 C 288.157 273.300, 295.929 284.861, 297.889 285.958 C 299.256 286.723, 299.297 287.459, 298.202 291.668 C 295.976 300.227, 291.276 308.221, 280.954 321 C 275.401 327.875, 268.786 336.762, 266.254 340.750 C 263.723 344.738, 261.371 348, 261.028 348 C 259.750 348, 253.129 340.248, 248.116 332.881 C 242.063 323.986, 233.642 315.735, 218.889 304.243 C 195.283 285.857, 182.183 264.019, 179.533 238.641 C 179.140 234.869, 178.464 232.169, 178.033 232.641 C 175.073 235.881, 169.313 261.128, 170.477 265.763 C 171.664 270.495, 169.628 270.266, 167.480 265.425 L 165.295 260.500 164.155 264.500 C 161.089 275.260, 160.212 298.803, 162.534 308 C 163.111 310.282, 162.900 310.195, 160.110 307 L 157.054 303.500 157.027 307.199 C 156.947 318.121, 163.949 343.355, 170.519 355.829 C 172.592 359.763, 173.313 361.950, 172.426 361.610 C 171.642 361.309, 171 361.268, 171 361.520 C 171 362.517, 183.257 382.543, 186.225 386.395 C 195.880 398.928, 199.974 402.763, 208.226 407.012 C 221.502 413.847, 234.143 421.471, 239.392 425.810 L 244.266 429.837 246.722 426.919 C 248.073 425.313, 249.478 424, 249.845 424 C 250.212 424, 251.147 425.462, 251.923 427.250 C 252.700 429.038, 258.668 435.830, 265.186 442.344 C 271.704 448.858, 279.991 457.970, 283.602 462.594 C 287.212 467.217, 290.534 471, 290.984 471 C 292.029 471, 311.632 431.261, 314.122 424.093 C 316.477 417.313, 316.596 404.835, 314.446 390.128 C 312.317 375.565, 311.412 372.572, 306.861 365.036 C 297.980 350.330, 296.758 336.733, 303.130 323.500 C 306.392 316.723, 306.500 316.109, 306.500 304.250 C 306.500 297.512, 306.635 292, 306.800 292 C 306.964 292, 308.449 292.698, 310.100 293.552 C 311.750 294.405, 313.954 294.832, 314.999 294.500 C 319.055 293.213, 318.543 288.691, 312.567 273 C 310.786 268.325, 307.841 260.563, 306.022 255.750 C 304.202 250.938, 302.411 247, 302.041 247 C 301.671 247, 300.357 245.201, 299.121 243.002 C 296.032 237.505, 292.294 233.226, 287.636 229.851 C 284.398 227.506, 282.707 227.007, 278.100 227.039 C 275.020 227.061, 270.925 227.760, 269 228.594 M 269.500 230.881 C 267.300 231.891, 264.600 233.750, 263.500 235.011 L 261.500 237.305 264.610 236.706 C 266.320 236.376, 269.957 235.809, 272.691 235.447 L 277.662 234.787 281.799 239.627 C 285.499 243.955, 291.739 254, 290.729 254 C 290.511 254, 288.680 251.601, 286.661 248.670 C 282.827 243.103, 278.317 238.349, 277.575 239.092 C 276.780 239.887, 279.228 249.432, 281.615 254.842 C 284.395 261.143, 295.193 277.872, 300.055 283.410 C 301.933 285.548, 305.005 287.940, 306.882 288.724 C 310.016 290.034, 310.455 289.990, 312.259 288.185 C 314.212 286.232, 314.190 286.135, 308.491 271.860 C 296.845 242.693, 291.976 234.174, 284.800 230.415 C 281.089 228.471, 274.297 228.678, 269.500 230.881 M 78.275 251.086 C 78.613 251.864, 82.432 261.050, 86.762 271.500 C 98.812 300.586, 106.215 311.257, 131.139 335.470 C 148.781 352.610, 153.695 355.991, 141.899 342.873 C 121.479 320.166, 109.254 303.192, 99.613 284.160 C 92.313 269.749, 81.414 251.992, 78.926 250.454 C 78.065 249.922, 77.857 250.124, 78.275 251.086 M 177.324 264.599 C 175.913 268.276, 178.883 296.065, 181.694 305.492 C 182.228 307.280, 182.112 307.337, 180.563 306.052 C 178.292 304.167, 173.700 294.955, 171.439 287.750 C 168.723 279.095, 167.603 280.534, 168.327 291.750 C 169.119 304.042, 171.786 315.048, 177.531 329.741 C 180.014 336.092, 181.864 341.469, 181.643 341.691 C 181.110 342.223, 172.572 330.829, 169.178 325.055 C 165.211 318.308, 165.096 322.721, 168.976 332.782 C 174.003 345.818, 183.784 361.091, 198.463 378.826 C 202.708 383.955, 205.996 388.337, 205.769 388.564 C 204.816 389.518, 194.951 382.197, 187.750 375.192 C 183.488 371.046, 180 367.974, 180 368.366 C 180 369.874, 184.427 377.758, 188.497 383.500 C 198.079 397.018, 213.115 407.567, 230.402 412.900 C 237.802 415.182, 239.235 415.037, 236.756 412.256 C 235.227 410.541, 229 398.828, 229 397.668 C 229 397.346, 231.137 398.392, 233.750 399.992 C 238.190 402.712, 244 404.830, 244 403.729 C 244 403.461, 242.861 400.753, 241.468 397.711 C 238.831 391.950, 234.025 372.589, 234.009 367.661 L 234 364.822 237.077 367.411 C 238.769 368.835, 240.532 370, 240.995 370 C 241.458 370, 242.584 370.287, 243.497 370.637 C 244.679 371.091, 243.833 368.636, 240.567 362.134 C 236.280 353.597, 230 338.814, 230 337.258 C 230 336.879, 232.363 338.856, 235.250 341.653 C 240.507 346.744, 248.053 352.280, 248.765 351.568 C 248.974 351.360, 246.974 348.488, 244.322 345.187 C 241.670 341.886, 237.250 334.997, 234.500 329.878 C 228.725 319.128, 222.702 312.371, 208.038 300.190 C 196.587 290.678, 192.779 286.168, 184.446 272.250 C 181.400 267.163, 178.690 263, 178.423 263 C 178.156 263, 177.661 263.720, 177.324 264.599 M 470 269.530 C 464.948 274.723, 452.545 283.262, 443.500 287.773 C 440.200 289.420, 427.696 294.873, 415.713 299.893 C 389.193 311.002, 377.198 316.948, 365.458 324.805 C 349.103 335.750, 344.229 341.209, 340.103 353.200 C 337.408 361.033, 335.070 375.563, 334.342 389.004 L 333.719 400.508 338.956 408.504 C 345.567 418.599, 355.127 438.085, 358.559 448.464 C 362.480 460.318, 364.910 473.955, 365.649 488.250 C 366.012 495.262, 366.577 500.999, 366.904 500.997 C 368.513 500.989, 383.063 487.692, 387.710 481.984 C 394.289 473.902, 401.306 459.997, 404.103 449.500 C 405.762 443.269, 406.242 438.514, 406.272 428 C 406.322 410.814, 404.307 401.220, 396.507 381.500 C 395.157 378.087, 406.606 389.796, 420.218 405.750 C 427.374 414.137, 433.606 421, 434.067 421 C 436.425 421, 445.243 410.267, 448.919 402.922 C 453.131 394.507, 461.203 370.825, 462.492 363.104 C 463.278 358.390, 463.103 358.299, 457.585 360.557 C 456.027 361.194, 456.236 360.515, 458.700 356.920 C 466.143 346.066, 469.734 335.609, 472.456 316.872 C 474.117 305.437, 474.398 300, 473.329 300 C 472.960 300, 471.812 300.765, 470.778 301.701 C 469.004 303.307, 469.012 303.139, 470.925 298.676 C 473.764 292.052, 475.155 282.914, 474.802 273.202 L 474.500 264.904 470 269.530 M 462 284.622 C 457.839 288.904, 451.064 292.444, 437.500 297.422 C 401.935 310.474, 390.269 315.879, 373.574 327.043 C 347.655 344.375, 342.624 353.055, 341.432 382.500 L 340.865 396.500 346.620 385.690 C 353.712 372.370, 361.409 363.651, 370.174 359.011 L 376.500 355.663 372.163 360.036 C 369.778 362.441, 366.721 366.591, 365.370 369.257 C 362.975 373.983, 360.363 384.696, 361.361 385.695 C 361.636 385.969, 362.752 384.463, 363.843 382.347 C 370.466 369.492, 384.301 365.565, 400.415 371.966 C 413.862 377.308, 426.541 376.791, 439.259 370.384 C 449.677 365.135, 452.591 362, 447.052 362 C 444.067 362, 429.639 357.745, 427.143 356.129 C 425.555 355.100, 426.121 354.695, 431.500 353.010 C 444.350 348.986, 456.936 339.056, 461.551 329.300 C 463.957 324.216, 466.922 309.588, 465.779 308.445 C 465.462 308.128, 462.739 309.259, 459.729 310.957 C 454.506 313.905, 439.110 320, 436.887 320 C 436.307 320, 439.278 317.696, 443.488 314.880 C 452.141 309.092, 458.044 302.288, 462.035 293.500 C 464.505 288.061, 466.655 280.984, 465.829 281.011 C 465.648 281.017, 463.925 282.642, 462 284.622 M 565.049 310.046 C 552.887 326.747, 533.784 339.683, 509.531 347.642 C 498.369 351.304, 500.125 352.073, 513.750 349.488 C 534.032 345.641, 554.185 335.313, 562.383 324.565 C 567.037 318.463, 572.535 304, 570.201 304 C 569.789 304, 567.470 306.720, 565.049 310.046 M 287.465 327.153 C 282.654 333.685, 275.430 347.983, 270.487 360.756 C 268.943 364.747, 267.480 367.813, 267.236 367.570 C 266.280 366.614, 270.343 350.037, 273.599 341.607 C 275.490 336.710, 276.873 332.540, 276.673 332.340 C 276.025 331.692, 267.252 345.543, 263.187 353.632 C 256.758 366.422, 254.847 373.806, 254.261 388.107 C 253.410 408.889, 257.147 422.652, 268.038 438.852 C 273.463 446.920, 286.195 461, 288.067 461 C 289.384 461, 294.678 449.121, 296.478 442.129 C 300.355 427.064, 300.419 406.783, 296.618 397.669 L 295.297 394.500 294.032 400.500 C 293.337 403.800, 292.068 408.300, 291.211 410.500 C 289.543 414.787, 283.107 425.455, 282.549 424.859 C 282.364 424.662, 282.855 421.575, 283.641 418 C 285.110 411.316, 286.801 374.001, 285.584 375.131 C 285.210 375.479, 283.847 380.879, 282.556 387.131 C 278.980 404.444, 278.139 405.517, 278.063 392.860 C 277.978 378.587, 282.091 357.696, 290.112 331.655 C 291.780 326.241, 292.918 321.585, 292.642 321.308 C 292.365 321.032, 290.036 323.662, 287.465 327.153 M 130 384.712 C 130 386.281, 137.625 398.952, 142.694 405.806 C 153.184 419.991, 168.189 432.614, 183.929 440.496 C 190.537 443.805, 193.559 444.900, 211.725 450.566 C 219.548 453.006, 228.511 456.136, 231.641 457.520 C 239.807 461.131, 252.570 469.918, 259.250 476.526 C 262.413 479.655, 265 481.786, 265 481.262 C 265 478.860, 256.006 466.781, 249.115 459.928 C 232.887 443.792, 212.717 432.485, 185 423.987 C 179.225 422.216, 171.971 419.493, 168.880 417.935 C 161.155 414.041, 150.253 405.123, 139.250 393.696 C 134.162 388.413, 130 384.370, 130 384.712 M 513 400.638 C 505.344 404.526, 494.211 409.023, 484.271 412.243 C 475.345 415.134, 468.032 417.800, 468.021 418.167 C 468.009 418.534, 469.913 419.529, 472.250 420.377 C 487.839 426.035, 503.859 425.059, 516 417.712 C 519.958 415.317, 532 404.126, 532 402.843 C 532 402.381, 529.862 403.525, 527.250 405.384 C 520.242 410.372, 513.178 413.667, 503.446 416.488 C 492.270 419.726, 491.253 419.624, 498.036 415.942 C 505.882 411.683, 529.314 393.696, 526.430 394.145 C 525.918 394.225, 519.875 397.146, 513 400.638 M 380.032 401.185 C 380.014 401.562, 380.423 402.982, 380.939 404.341 C 384.391 413.418, 384.142 432.717, 380.361 449.286 C 378.546 457.239, 378.063 456.931, 376.138 446.589 C 375.050 440.741, 369.424 427.243, 368.472 428.195 C 368.201 428.466, 368.631 430.536, 369.427 432.794 C 372.193 440.631, 373.317 452.858, 372.686 468.230 C 371.974 485.563, 371.652 485.354, 382.072 474.304 C 389.257 466.686, 395.059 456.516, 397.364 447.500 C 399.344 439.752, 400.473 426.965, 399.497 423.336 C 398.839 420.891, 398.557 421.504, 397.456 427.786 C 396.741 431.864, 394.615 438.249, 392.628 442.286 C 390.675 446.254, 389.385 448.150, 389.762 446.500 C 390.917 441.440, 390.512 425.810, 389.075 420 C 387.544 413.808, 384.018 405.505, 381.644 402.500 C 380.775 401.400, 380.049 400.808, 380.032 401.185 M 324.317 436.250 C 322.959 446.198, 317.808 460.544, 305.907 487.528 C 301.049 498.543, 296.573 509.893, 295.960 512.749 C 294.565 519.256, 295.798 525.971, 300.691 538.500 C 304.127 547.299, 312.795 563.998, 313.929 564.002 C 314.243 564.003, 314.351 561.126, 314.169 557.609 C 313.565 545.926, 315.948 536.599, 328.904 499.923 C 333.745 486.217, 335.225 474.930, 333.941 461.501 C 332.929 450.915, 327.324 428, 325.746 428 C 325.580 428, 324.936 431.712, 324.317 436.250 M 418.062 480.714 C 413.653 490.801, 400.974 502.605, 385.136 511.365 C 380.553 513.900, 374.671 517.540, 372.065 519.453 C 366.803 523.315, 339.579 550.913, 340.310 551.643 C 340.565 551.898, 343.862 550.127, 347.637 547.707 C 351.411 545.287, 363.500 538.443, 374.500 532.497 C 385.500 526.551, 396.983 519.748, 400.018 517.378 C 410.046 509.548, 416.539 498.900, 419.569 485.315 C 421.697 475.774, 421.065 473.843, 418.062 480.714 M 321.868 480.500 C 321.520 481.050, 320.903 483.075, 320.498 485 C 319.208 491.122, 314.485 500.268, 308.671 507.902 C 305.552 511.997, 302.745 516.845, 302.387 518.751 C 301.324 524.416, 302.651 532.384, 305.611 538.113 L 308.394 543.500 309.205 538 C 311.003 525.801, 312.365 521.095, 316.674 512.197 C 319.765 505.814, 321.482 500.708, 322.144 495.931 C 323.147 488.692, 322.969 478.758, 321.868 480.500 M 218.493 507.250 C 222.153 511.238, 226.971 517.650, 229.198 521.500 C 233.890 529.609, 242.902 539.300, 251.542 545.525 C 257.723 549.979, 271.351 557, 273.815 557 C 274.586 557, 273.285 554.780, 270.843 551.929 C 268.454 549.139, 262 540.938, 256.500 533.704 C 244.973 518.543, 235.451 509.927, 223.634 503.967 C 211.660 497.928, 210.573 498.622, 218.493 507.250" stroke="none" fill="#c6a23a" fill-rule="evenodd"/></svg>